<?xml version="1.0" encoding="utf-8"?>
<!-- Generator: Adobe Illustrator 22.1.0, SVG Export Plug-In . SVG Version: 6.00 Build 0)  -->
<svg version="1.1" id="Camada_1" xmlns="http://www.w3.org/2000/svg" xmlns:xlink="http://www.w3.org/1999/xlink" x="0px" y="0px"
	 viewBox="0 0 127 84" style="enable-background:new 0 0 127 84;" xml:space="preserve">
<style type="text/css">
	.st0{fill:#FFFFFF;}
</style>
<g>
	<rect x="1.9" y="2" class="st0" width="112.5" height="24.9"/>
	<g>
		<path d="M14.5,10.1c-0.5,0-0.9,0.1-1.2,0.4c-0.3,0.3-0.5,0.6-0.5,1c0,0.4,0.1,0.6,0.3,0.8c0.3,0.2,0.9,0.4,1.8,0.7
			c1.4,0.4,2.4,0.8,3,1.3c1.1,0.8,1.7,2,1.7,3.5c0,1.3-0.5,2.5-1.5,3.4c-1,0.9-2.2,1.4-3.6,1.4s-2.6-0.5-3.6-1.4
			c-1-0.9-1.5-2.1-1.5-3.4h3.4c0,0.4,0.2,0.7,0.5,1c0.3,0.3,0.7,0.4,1.2,0.4s0.9-0.1,1.2-0.4c0.3-0.3,0.5-0.6,0.5-1
			c0-0.4-0.1-0.7-0.3-0.8c-0.3-0.2-0.9-0.4-1.8-0.7c-1.4-0.4-2.4-0.8-3-1.3c-1.1-0.8-1.7-2-1.7-3.5c0-1.3,0.5-2.5,1.5-3.4
			c1-0.9,2.2-1.4,3.6-1.4s2.6,0.5,3.6,1.4c1,0.9,1.5,2.1,1.5,3.4h-3.4c0-0.4-0.2-0.7-0.5-1C15.4,10.3,15,10.1,14.5,10.1z"/>
		<path d="M28.9,6.8h3.3v10.4c0,1.5-0.5,2.7-1.6,3.8c-1,1-2.3,1.6-3.8,1.6c-1.5,0-2.7-0.5-3.8-1.6c-1-1-1.6-2.3-1.6-3.8V6.8H25v10.4
			c0,0.5,0.2,1,0.6,1.4c0.4,0.4,0.8,0.6,1.4,0.6c0.5,0,1-0.2,1.4-0.6c0.4-0.4,0.6-0.9,0.6-1.4V6.8z"/>
		<path d="M41.4,6.8L47,22.5h-3.4l-0.9-2.9h-4.8l-0.9,2.9h-3.4l5.6-15.6H41.4z M41.8,16.7l-1.5-4.4l-1.5,4.4H41.8z"/>
		<path d="M69.2,19.5c-0.7,0.9-1.5,1.7-2.5,2.2c-1.1,0.6-2.4,0.9-3.7,0.9c-2.2,0-4-0.8-5.5-2.3c-1.5-1.6-2.3-3.4-2.3-5.6
			c0-2.2,0.8-4.1,2.3-5.6C59,7.4,60.8,6.7,63,6.7c1.3,0,2.5,0.3,3.7,0.9c1,0.6,1.9,1.3,2.6,2.2l-2.7,2.1c-0.9-1.2-2.1-1.8-3.6-1.8
			c-1.2,0-2.3,0.4-3.1,1.3c-0.9,0.9-1.3,2-1.3,3.2c0,1.3,0.4,2.3,1.3,3.2s1.9,1.3,3.1,1.3c1.5,0,2.7-0.6,3.6-1.8L69.2,19.5z"/>
		<path d="M77.1,6.8l5.6,15.6h-3.4l-0.9-2.9h-4.8l-0.9,2.9h-3.4l5.6-15.6H77.1z M77.5,16.7l-1.5-4.4l-1.5,4.4H77.5z"/>
		<path d="M90.5,22.5l-3.2-5.6v5.6H84V6.8h5.4c1.2,0,2.3,0.4,3.1,1.3c0.8,0.9,1.3,2,1.3,3.3c0.1,1.5-0.3,2.6-1.2,3.5
			c-0.5,0.5-1.1,0.9-1.9,1.1l3.8,6.5H90.5z M90.4,11.5c0-0.9-0.4-1.3-1.1-1.3h-2V13h2.1c0.3,0,0.6-0.1,0.8-0.4
			C90.4,12.4,90.5,12,90.4,11.5z"/>
		<path d="M102,6.8l5.6,15.6h-3.4l-0.9-2.9h-4.8l-0.9,2.9h-3.4l5.6-15.6H102z M102.3,16.7l-1.5-4.4l-1.5,4.4H102.3z"/>
	</g>
	<rect x="2" y="29.8" class="st0" width="125.4" height="24.9"/>
	<g>
		<path d="M13.2,38c-0.5,0-0.9,0.1-1.2,0.4c-0.3,0.3-0.5,0.6-0.5,1c0,0.4,0.1,0.6,0.3,0.8c0.3,0.2,0.9,0.4,1.8,0.7
			c1.4,0.4,2.4,0.8,3,1.3c1.1,0.8,1.7,2,1.7,3.5c0,1.3-0.5,2.5-1.5,3.4c-1,0.9-2.2,1.4-3.6,1.4s-2.6-0.5-3.6-1.4
			c-1-0.9-1.5-2.1-1.5-3.4h3.4c0,0.4,0.2,0.7,0.5,1c0.3,0.3,0.7,0.4,1.2,0.4s0.9-0.1,1.2-0.4c0.3-0.3,0.5-0.6,0.5-1
			c0-0.4-0.1-0.7-0.3-0.8c-0.3-0.2-0.9-0.4-1.8-0.7c-1.4-0.4-2.4-0.8-3-1.3c-1.1-0.8-1.7-2-1.7-3.5c0-1.3,0.5-2.5,1.5-3.4
			c1-0.9,2.2-1.4,3.6-1.4s2.6,0.5,3.6,1.4c1,0.9,1.5,2.1,1.5,3.4h-3.4c0-0.4-0.2-0.7-0.5-1C14,38.1,13.6,38,13.2,38z"/>
		<path d="M27.6,34.7h3.3v10.4c0,1.5-0.5,2.7-1.6,3.8c-1,1-2.3,1.6-3.8,1.6c-1.5,0-2.7-0.5-3.8-1.6c-1-1-1.6-2.3-1.6-3.8V34.7h3.3
			v10.4c0,0.5,0.2,1,0.6,1.4c0.4,0.4,0.8,0.6,1.4,0.6c0.5,0,1-0.2,1.4-0.6c0.4-0.4,0.6-0.9,0.6-1.4V34.7z"/>
		<path d="M40,34.7l5.6,15.6h-3.4l-0.9-2.9h-4.8l-0.9,2.9h-3.4l5.6-15.6H40z M40.4,44.6l-1.5-4.4l-1.5,4.4H40.4z"/>
		<path d="M56.9,34.7l3.9,9.8l3.9-9.8h2.8v15.6h-3.3v-6l-2.3,6h-2l-2.3-6v6h-3.3V34.7H56.9z"/>
		<path d="M76.6,34.7l5.6,15.6h-3.4l-0.9-2.9H73l-0.9,2.9h-3.4l5.6-15.6H76.6z M77,44.6l-1.5-4.4l-1.5,4.4H77z"/>
		<path d="M90,50.3l-3.2-5.6v5.6h-3.3V34.7h5.4c1.2,0,2.3,0.4,3.1,1.3c0.8,0.9,1.3,2,1.3,3.3c0.1,1.5-0.3,2.6-1.2,3.5
			c-0.5,0.5-1.1,0.9-1.9,1.1l3.8,6.5H90z M89.9,39.3c0-0.9-0.4-1.3-1.1-1.3h-2v2.8h2.1c0.3,0,0.6-0.1,0.8-0.4
			C89.9,40.2,90,39.8,89.9,39.3z"/>
		<path d="M108.6,47.3c-0.7,0.9-1.5,1.7-2.5,2.2c-1.1,0.6-2.4,0.9-3.7,0.9c-2.2,0-4-0.8-5.5-2.3c-1.5-1.6-2.3-3.4-2.3-5.6
			c0-2.2,0.8-4.1,2.3-5.6c1.5-1.6,3.4-2.3,5.5-2.3c1.3,0,2.5,0.3,3.7,0.9c1,0.6,1.9,1.3,2.6,2.2l-2.7,2.1c-0.9-1.2-2.1-1.8-3.6-1.8
			c-1.2,0-2.3,0.4-3.1,1.3c-0.9,0.9-1.3,2-1.3,3.2c0,1.3,0.4,2.3,1.3,3.2s1.9,1.3,3.1,1.3c1.5,0,2.7-0.6,3.6-1.8L108.6,47.3z"/>
		<path d="M116.5,34.7l5.6,15.6h-3.4l-0.9-2.9h-4.8l-0.9,2.9h-3.4l5.6-15.6H116.5z M116.8,44.6l-1.5-4.4l-1.5,4.4H116.8z"/>
	</g>
	<rect x="2" y="57.7" class="st0" width="120.9" height="24.9"/>
	<g>
		<path d="M12,65.8c-0.5,0-0.9,0.1-1.2,0.4c-0.3,0.3-0.5,0.6-0.5,1c0,0.4,0.1,0.6,0.3,0.8c0.3,0.2,0.9,0.4,1.8,0.7
			c1.4,0.4,2.4,0.8,3,1.3c1.1,0.8,1.7,2,1.7,3.5c0,1.3-0.5,2.5-1.5,3.4c-1,0.9-2.2,1.4-3.6,1.4s-2.6-0.5-3.6-1.4
			c-1-0.9-1.5-2.1-1.5-3.4h3.4c0,0.4,0.2,0.7,0.5,1c0.3,0.3,0.7,0.4,1.2,0.4s0.9-0.1,1.2-0.4c0.3-0.3,0.5-0.6,0.5-1
			c0-0.4-0.1-0.7-0.3-0.8c-0.3-0.2-0.9-0.4-1.8-0.7c-1.4-0.4-2.4-0.8-3-1.3c-1.1-0.8-1.7-2-1.7-3.5c0-1.3,0.5-2.5,1.5-3.4
			c1-0.9,2.2-1.4,3.6-1.4s2.6,0.5,3.6,1.4c1,0.9,1.5,2.1,1.5,3.4h-3.4c0-0.4-0.2-0.7-0.5-1C12.8,65.9,12.4,65.8,12,65.8z"/>
		<path d="M19.1,62.5h10v3.3h-6.7v2.8h6.7V72h-6.7v2.9h6.7v3.3h-10V62.5z"/>
		<path d="M38.2,62.5h3.3v10.4c0,1.5-0.5,2.7-1.6,3.8c-1,1-2.3,1.6-3.8,1.6c-1.5,0-2.7-0.5-3.8-1.6c-1-1-1.6-2.3-1.6-3.8V62.5h3.3
			v10.4c0,0.5,0.2,1,0.6,1.4c0.4,0.4,0.8,0.6,1.4,0.6c0.5,0,1-0.2,1.4-0.6c0.4-0.4,0.6-0.9,0.6-1.4V62.5z"/>
		<path d="M51.3,62.5h10v3.3h-6.7v2.8h6.7V72h-6.7v2.9h6.7v3.3h-10V62.5z"/>
		<path d="M67.6,65.8c-0.5,0-0.9,0.1-1.2,0.4c-0.3,0.3-0.5,0.6-0.5,1c0,0.4,0.1,0.6,0.3,0.8c0.3,0.2,0.9,0.4,1.8,0.7
			c1.4,0.4,2.4,0.8,3,1.3c1.1,0.8,1.7,2,1.7,3.5c0,1.3-0.5,2.5-1.5,3.4c-1,0.9-2.2,1.4-3.6,1.4S65,77.9,64,76.9
			c-1-0.9-1.5-2.1-1.5-3.4h3.4c0,0.4,0.2,0.7,0.5,1c0.3,0.3,0.7,0.4,1.2,0.4s0.9-0.1,1.2-0.4c0.3-0.3,0.5-0.6,0.5-1
			c0-0.4-0.1-0.7-0.3-0.8c-0.3-0.2-0.9-0.4-1.8-0.7c-1.4-0.4-2.4-0.8-3-1.3c-1.1-0.8-1.7-2-1.7-3.5c0-1.3,0.5-2.5,1.5-3.4
			c1-0.9,2.2-1.4,3.6-1.4s2.6,0.5,3.6,1.4c1,0.9,1.5,2.1,1.5,3.4h-3.4c0-0.4-0.2-0.7-0.5-1C68.5,65.9,68.1,65.8,67.6,65.8z"/>
		<path d="M83.6,62.5v3.3h-3.1v12.3h-3.3V65.8H74v-3.3H83.6z"/>
		<path d="M85.7,62.5H89v15.6h-3.3V62.5z"/>
		<path d="M95.2,74.8h6.3v3.3h-9.6V62.5h3.3V74.8z"/>
		<path d="M110.4,62.3c2.2,0,4,0.8,5.5,2.3c1.5,1.6,2.3,3.4,2.3,5.6c0,2.2-0.8,4.1-2.3,5.6c-1.5,1.6-3.4,2.3-5.5,2.3
			c-2.2,0-4-0.8-5.6-2.3c-1.5-1.6-2.3-3.4-2.3-5.6c0-2.2,0.8-4.1,2.3-5.6C106.3,63.1,108.2,62.3,110.4,62.3z M110.4,74.9
			c1.2,0,2.3-0.4,3.1-1.3s1.3-2,1.3-3.2c0-1.3-0.4-2.3-1.3-3.2c-0.9-0.9-1.9-1.3-3.1-1.3c-1.2,0-2.3,0.4-3.2,1.3
			c-0.9,0.9-1.3,2-1.3,3.2c0,1.3,0.4,2.3,1.3,3.2S109.1,74.9,110.4,74.9z"/>
	</g>
</g>
</svg>
