<?xml version="1.0" encoding="utf-8"?>
<!-- Generator: Adobe Illustrator 22.1.0, SVG Export Plug-In . SVG Version: 6.00 Build 0)  -->
<svg version="1.1" id="Camada_1" xmlns="http://www.w3.org/2000/svg" xmlns:xlink="http://www.w3.org/1999/xlink" x="0px" y="0px"
	 viewBox="0 0 300 70" style="enable-background:new 0 0 300 70;" xml:space="preserve">
<style type="text/css">
	.st0{fill:#999999;}
</style>
<g>
	<g>
		<g>
			<path class="st0" d="M66.5,46.1L66.5,46.1l-4.7,12.7l-0.5-2.4l0,0l-1.6-7.9c-0.4-1.4-1.5-2.4-3.1-2.4h-7.5L49,46.5
				c2,0.5,4,1.4,5.7,2.5L59,64.9h5l7.6-18.7h-5.1V46.1z"/>
			<polygon class="st0" points="70.5,64.8 75.3,64.8 78.3,46.1 73.5,46.1 			"/>
			<path class="st0" d="M105.1,46.2h-3.7c-1.1,0-2,0.3-2.5,1.5l-7.1,17.2h5l1.4-3.7h5.6l0.7,3.7h4.5L105.1,46.2z M99.5,57.4
				c0.1,0,1.9-6.1,1.9-6.1l1.5,6.1C103,57.4,100.5,57.4,99.5,57.4z"/>
			<path class="st0" d="M88,53.7c-1.7-0.8-2.7-1.4-2.7-2.2s0.9-1.6,2.8-1.6c1.6,0,2.7,0.3,3.6,0.7l0.4,0.2l0.7-3.9
				c-0.9-0.4-2.5-0.8-4.3-0.8c-4.7,0-8.1,2.5-8.1,6c0,2.6,2.4,4.1,4.2,4.9c1.9,0.9,2.5,1.5,2.5,2.3c0,1.2-1.5,1.8-2.9,1.8
				c-1.9,0-2.9-0.3-4.5-1L79,59.8l-0.7,4.1c1.1,0.5,3.2,0.9,5.4,1c5,0,8.3-2.4,8.4-6.2C92.1,56.6,90.8,55,88,53.7z"/>
		</g>
		<path class="st0" d="M27.9,44.3c-2.5,0-4.8,0.8-6.7,2.2l0,0c0.3,0.3,0.7,0.5,1,0.9c-2-1.9-4.7-3.1-7.7-3.1
			c-6.2,0-11.2,5-11.2,11.2s5,11.2,11.2,11.2c2.5,0,4.9-0.8,6.7-2.3c1.9,1.4,4.2,2.3,6.7,2.3c6.2,0,11.2-5,11.2-11.2
			C39.1,49.3,34.1,44.3,27.9,44.3z"/>
		<g>
			<polygon class="st0" points="150.9,49.6 150.1,51.6 151.8,51.6 			"/>
			<polygon class="st0" points="121.9,51.6 123.5,51.6 122.7,49.6 			"/>
			<path class="st0" d="M141.5,50.8c0.2-0.1,0.2-0.3,0.2-0.5s-0.1-0.4-0.2-0.4c-0.1-0.1-0.4-0.1-0.6-0.1h-1.5v1.1h1.4
				C141.1,50.9,141.3,50.9,141.5,50.8z"/>
			<path class="st0" d="M146.5,58.4c-0.1-0.1-0.4-0.1-0.6-0.1h-1.5v1.1h1.4c0.2,0,0.4,0,0.6-0.1c0.2-0.1,0.2-0.3,0.2-0.5
				C146.8,58.6,146.7,58.5,146.5,58.4z"/>
			<path class="st0" d="M140.8,58.3h-1.6v1.3h1.5c0.5,0,0.7-0.2,0.7-0.7C141.5,58.5,141.2,58.3,140.8,58.3z"/>
			<path class="st0" d="M162.7,59.1L162.7,59.1c0.2-0.2,0.3-0.4,0.3-0.7v-1.1c0-0.5-0.4-0.8-0.8-0.8h-2.4c-0.7,0-1.3,0.2-1.7,0.5
				c-0.1-0.3-0.4-0.5-0.8-0.5H155c-0.7,0-1.2,0.2-1.6,0.4c-0.1-0.3-0.4-0.4-0.7-0.4h-4c-0.3,0-0.6,0.2-0.7,0.5
				c-0.1,0-0.1-0.1-0.2-0.1c-0.6-0.3-1.2-0.3-1.8-0.3h-2.7c-0.3,0-0.6,0.2-0.7,0.5c-0.4-0.3-1-0.5-1.8-0.5H137
				c-0.2,0-0.4,0.1-0.6,0.3l-0.9,1l-0.9-1c-0.2-0.2-0.4-0.3-0.6-0.3h-4.8c-0.5,0-0.8,0.4-0.8,0.8v5c0,0.5,0.4,0.8,0.8,0.8h4.7
				c0.2,0,0.4-0.1,0.6-0.3l0.9-1l0.9,1c0.2,0.2,0.4,0.3,0.6,0.3h2.3c0.5,0,0.8-0.4,0.8-0.8v-0.8h0.7c0.8,0,1.4-0.2,1.8-0.4v1.3
				c0,0.5,0.4,0.8,0.8,0.8h1.2c0.5,0,0.8-0.4,0.8-0.8v-1h0.4c0.1,0,0.2,0,0.2,0c0,0.1,0,0.2,0,0.3v0.7c0,0.5,0.4,0.8,0.8,0.8h1.2
				c0.1,0,0.3,0,0.4-0.1c0.1,0.1,0.2,0.1,0.4,0.1h4c0.1,0,0.2,0,0.4-0.1c0.1,0.1,0.2,0.1,0.4,0.1h2.3c0.7,0,1.3-0.2,1.8-0.5
				c0.1,0.3,0.4,0.5,0.8,0.5h2.3c1.7,0,2.7-0.9,2.7-2.4C163.3,60,163.1,59.5,162.7,59.1z M140.7,60.6h-1.5v1.7h-2.3l-1.5-1.6
				l-1.5,1.6h-4.7v-5h4.8l1.5,1.6l1.5-1.6h3.8c0.9,0,2,0.3,2,1.6C142.8,60.3,141.7,60.6,140.7,60.6z M147.3,60
				c0.3,0.1,0.5,0.3,0.6,0.4c0.2,0.2,0.2,0.5,0.2,0.9v1h-1.2v-0.6c0-0.3,0-0.7-0.2-1c-0.2-0.2-0.4-0.2-0.9-0.2h-1.3v1.8h-1.2v-5h2.7
				c0.6,0,1,0,1.4,0.2s0.6,0.5,0.6,1.1C148.1,59.4,147.6,59.8,147.3,60z M152.7,58.3h-2.8v0.9h2.7v1h-2.7v1h2.8v1h-4v-5h4V58.3z
				 M155.8,62.3h-2.3v-1.1h2.3c0.2,0,0.4,0,0.5-0.1s0.1-0.2,0.1-0.3s-0.1-0.3-0.1-0.3c-0.1-0.1-0.2-0.1-0.4-0.1
				c-1.1,0-2.5,0-2.5-1.5c0-0.7,0.5-1.5,1.7-1.5h2.4v1.1h-2.2c-0.2,0-0.4,0-0.5,0.1s-0.2,0.2-0.2,0.4s0.1,0.3,0.3,0.4
				c0.1,0,0.3,0.1,0.5,0.1h0.6c0.6,0,1.1,0.1,1.4,0.4c0.2,0.2,0.4,0.5,0.4,1.1C157.6,61.8,157,62.3,155.8,62.3z M160.6,62.3h-2.3
				v-1.1h2.3c0.2,0,0.4,0,0.5-0.1s0.1-0.2,0.1-0.3s-0.1-0.3-0.1-0.3c-0.1-0.1-0.2-0.1-0.4-0.1c-1.1,0-2.5,0-2.5-1.5
				c0-0.7,0.5-1.5,1.7-1.5h2.4v1.1h-2.2c-0.2,0-0.4,0-0.5,0.1s-0.2,0.2-0.2,0.4s0.1,0.3,0.3,0.4c0.1,0,0.3,0.1,0.5,0.1h0.6
				c0.6,0,1.1,0.1,1.4,0.4c0.2,0.2,0.4,0.5,0.4,1.1C162.5,61.8,161.8,62.3,160.6,62.3z"/>
			<path class="st0" d="M129.6,54.5c0.3,0,0.6-0.2,0.8-0.5l0.2-0.4l0,0c0,0.5,0.4,0.8,0.8,0.8h1.2c0.2,0,0.3-0.1,0.4-0.1
				c0.1,0.1,0.3,0.1,0.4,0.1h4c0.2,0,0.3-0.1,0.4-0.1c0.1,0.1,0.3,0.1,0.4,0.1h1.2c0.5,0,0.8-0.4,0.8-0.8v-1h0.5c0.1,0,0.2,0,0.2,0
				c0,0.1,0,0.2,0,0.3V53v0.6c0,0.5,0.4,0.8,0.8,0.8h1.2c0.1,0,0.3,0,0.4-0.1c0.1,0.1,0.2,0.1,0.4,0.1h1.2c0.4,0,0.7-0.3,0.8-0.7
				c0.7,0.6,1.6,0.7,2.2,0.7h1.4c0.3,0,0.6-0.2,0.8-0.5l0.2-0.6h1.4l0.3,0.6c0.1,0.3,0.4,0.5,0.8,0.5h2.4c0.5,0,0.8-0.4,0.8-0.8
				v-0.8l0.7,1.2c0.1,0.2,0.4,0.4,0.7,0.4h1.7c0.5,0,0.8-0.4,0.8-0.8v-5c0-0.5-0.4-0.8-0.8-0.8h-1.2c-0.5,0-0.8,0.4-0.8,0.8v0.5
				l-0.6-0.9c-0.2-0.2-0.4-0.4-0.7-0.4H154c-0.5,0-0.8,0.4-0.8,0.8v0.7l-0.4-1c-0.1-0.3-0.4-0.5-0.8-0.5h-1.8
				c-0.2,0-0.4,0.1-0.5,0.2c-0.1-0.1-0.3-0.2-0.5-0.2h-1.1c-1,0-1.7,0.2-2.2,0.7c-0.1-0.4-0.4-0.7-0.8-0.7h-1.2
				c-0.3,0-0.6,0.2-0.7,0.5c-0.1,0-0.1-0.1-0.1-0.1c-0.6-0.3-1.1-0.3-1.9-0.3h-2.7c-0.2,0-0.3,0.1-0.4,0.1c-0.1-0.1-0.3-0.1-0.4-0.1
				h-4c-0.2,0-0.3,0.1-0.4,0.1c-0.1-0.1-0.3-0.1-0.4-0.1h-2c-0.3,0-0.6,0.2-0.8,0.5l-0.7,1.7l-0.8-1.7c-0.1-0.3-0.4-0.5-0.7-0.5H126
				c-0.5,0-0.8,0.4-0.8,0.8v0.7l-0.4-1c-0.1-0.3-0.4-0.5-0.8-0.5h-1.8c-0.3,0-0.6,0.2-0.8,0.5l-2.1,5c-0.1,0.3-0.1,0.5,0.1,0.8
				c0.2,0.2,0.4,0.4,0.7,0.4h1.3c0.3,0,0.6-0.2,0.8-0.5l0.3-0.6h1.4l0.2,0.6c0.1,0.3,0.4,0.5,0.8,0.5h2.4c0.5,0,0.8-0.4,0.8-0.8l0,0
				l0.2,0.4c0.1,0.3,0.4,0.5,0.8,0.5L129.6,54.5z M146.1,49.3c0.4-0.4,1-0.6,1.8-0.6h1.1v1.1h-1c-0.4,0-0.7,0.1-0.9,0.3
				s-0.3,0.6-0.3,1.1s0.1,0.9,0.3,1.2c0.2,0.2,0.5,0.3,0.8,0.3h0.5l1.7-3.9h1.8l2,4.7v-4.7h1.8l2.1,3.5v-3.5h1.2v5h-1.7L155,50v3.7
				h-2.4l-0.5-1.1h-2.5l-0.4,1.1h-1.4c-0.6,0-1.3-0.1-1.7-0.5s-0.6-1-0.6-1.9C145.5,50.5,145.6,49.8,146.1,49.3z M148.4,50.6
				l-0.5,1.2c-0.1,0-0.2,0-0.2,0c0-0.1-0.1-0.2-0.1-0.6c0-0.3,0.1-0.5,0.1-0.5s0.1-0.1,0.3-0.1L148.4,50.6z M143.7,48.7h1.2v5h-1.2
				V48.7z M138.2,48.7h2.7c0.6,0,1.1,0,1.4,0.2c0.4,0.2,0.6,0.5,0.6,1.1c0,0.8-0.5,1.2-0.8,1.3c0.3,0.1,0.5,0.3,0.6,0.4
				c0.2,0.2,0.2,0.5,0.2,0.9v1h-1.2V53c0-0.3,0-0.7-0.2-1c-0.2-0.2-0.4-0.2-0.9-0.2h-1.3v1.8h-1.2l0,0L138.2,48.7L138.2,48.7z
				 M133.4,48.7h4v1h-2.8v0.9h2.7v1h-2.7v1h2.8v1h-4V48.7z M126.8,49.8v3.9h-2.4l-0.5-1.1h-2.5l-0.5,1.1h-1.3l2.1-5h1.8l2,4.7v-4.7
				h1.9l1.6,3.4l1.4-3.4h2v5h-1.2v-3.9l-1.7,3.9h-1L126.8,49.8z"/>
			<polygon class="st0" points="138,61.8 138,57.8 136.2,59.8 			"/>
			<polygon class="st0" points="130.4,58.3 130.4,59.2 133,59.2 133,60.2 130.4,60.2 130.4,61.2 133.3,61.2 134.7,59.8 133.4,58.3 
							"/>
		</g>
		<g>
			<path class="st0" d="M181.6,50.8c-0.2-0.3-0.4-0.6-0.7-0.8s-0.7-0.3-1.1-0.4c-0.4-0.1-0.9-0.1-1.5-0.1h-2.7
				c-0.3,0-0.5,0.2-0.6,0.5l-1.8,7.8c-0.1,0.3,0.1,0.5,0.4,0.5h1.3c0.3,0,0.5-0.2,0.6-0.5L176,56c0.1-0.3,0.3-0.5,0.6-0.5h0.4
				c1.6,0,2.8-0.3,3.6-1c0.9-0.6,1.3-1.5,1.3-2.5C181.9,51.5,181.8,51.1,181.6,50.8z M178.9,53.4c-0.4,0.3-0.9,0.4-1.6,0.4H177
				c-0.3,0-0.4-0.2-0.4-0.5l0.4-1.7c0.1-0.3,0.3-0.5,0.6-0.5h0.4c0.5,0,0.9,0.1,1.1,0.2c0.2,0.2,0.4,0.4,0.4,0.8
				C179.5,52.7,179.3,53.1,178.9,53.4z"/>
			<path class="st0" d="M187.8,52c-0.5-0.3-1.2-0.4-2.3-0.4c-0.5,0-1,0-1.5,0.1c-0.4,0.1-0.4,0.1-0.7,0.1c-0.5,0.1-0.6,0.6-0.6,0.6
				l-0.2,0.6c-0.1,0.4,0.1,0.4,0.2,0.4c0.2-0.1,0.3-0.1,0.8-0.2c0.4-0.1,0.8-0.2,1.2-0.2c0.5,0,0.9,0.1,1.2,0.2
				c0.3,0.1,0.4,0.3,0.4,0.6V54l-0.2,0.1c-0.7,0-1.2,0.1-1.9,0.2c-0.6,0.1-1.2,0.2-1.6,0.4c-0.5,0.2-0.8,0.5-1.1,0.9
				c-0.2,0.4-0.4,0.8-0.4,1.3s0.2,0.9,0.5,1.2s0.8,0.5,1.3,0.5c0.3,0,0.6,0,0.8-0.1l0.6-0.2L185,58l0.5-0.3l0,0v0.2l0,0l0,0
				c-0.1,0.2,0.1,0.5,0.3,0.5l0,0l0,0h1h0.2l0,0c0.3,0,0.5-0.2,0.5-0.5l0.9-4v-0.3v-0.3C188.5,52.6,188.2,52.2,187.8,52z
				 M185.7,56.5l-0.2,0.3L185,57c-0.2,0.1-0.5,0.1-0.7,0.1c-0.3,0-0.6,0-0.7-0.1l-0.2-0.5c0-0.3,0.1-0.5,0.2-0.6l0.5-0.4
				c0.2-0.1,0.5-0.1,0.8-0.2c0.3,0,0.9-0.1,0.9-0.1l0.1,0.2C185.9,55.5,185.8,56.2,185.7,56.5z"/>
			<path class="st0" d="M210.9,52c-0.5-0.3-1.2-0.4-2.3-0.4c-0.5,0-1,0-1.5,0.1c-0.4,0.1-0.4,0.1-0.7,0.1c-0.5,0.1-0.6,0.6-0.6,0.6
				l-0.2,0.6c-0.1,0.4,0.1,0.4,0.3,0.4c0.2-0.1,0.3-0.1,0.8-0.2c0.4-0.1,0.8-0.2,1.2-0.2c0.5,0,0.9,0.1,1.2,0.2
				c0.3,0.1,0.4,0.3,0.4,0.6V54l-0.2,0.1c-0.7,0-1.3,0.1-1.9,0.2c-0.6,0.1-1.2,0.2-1.6,0.4c-0.5,0.2-0.8,0.5-1.1,0.9
				c-0.2,0.4-0.4,0.8-0.4,1.3s0.2,0.9,0.5,1.2s0.8,0.5,1.3,0.5c0.3,0,0.6,0,0.8-0.1l0.6-0.2L208,58l0.5-0.3l0,0v0.2l0,0l0,0
				c-0.1,0.2,0.1,0.5,0.3,0.5l0,0l0,0c0.2,0,0.7,0,1,0h0.2l0,0c0.3,0,0.5-0.2,0.5-0.5l0.9-4v-0.3v-0.3
				C211.6,52.7,211.4,52.2,210.9,52z M208.8,56.5l-0.2,0.3l-0.5,0.3c-0.2,0.1-0.5,0.1-0.7,0.1c-0.3,0-0.6,0-0.7-0.1l-0.2-0.5
				c0-0.3,0.1-0.5,0.2-0.6c0.1-0.2,0.3-0.3,0.5-0.4c0.2-0.1,0.5-0.1,0.8-0.2c0.3,0,0.9-0.1,0.9-0.1l0.1,0.2
				C209.1,55.5,208.9,56.2,208.8,56.5z"/>
			<path class="st0" d="M204.7,50.9c-0.2-0.3-0.4-0.6-0.7-0.8s-0.7-0.3-1.1-0.4c-0.4-0.1-0.9-0.1-1.5-0.1h-2.7
				c-0.3,0-0.5,0.2-0.6,0.5l-1.8,7.8c-0.1,0.3,0.1,0.5,0.4,0.5h1.3c0.3,0,0.5-0.2,0.6-0.5L199,56c0.1-0.3,0.3-0.5,0.6-0.5h0.4
				c1.6,0,2.8-0.3,3.6-1c0.9-0.6,1.3-1.5,1.3-2.5C205,51.6,204.9,51.2,204.7,50.9z M202,53.4c-0.4,0.3-0.9,0.4-1.6,0.4h-0.3
				c-0.3,0-0.5-0.2-0.4-0.5l0.4-1.7c0.1-0.3,0.3-0.5,0.6-0.5h0.4c0.5,0,0.9,0.1,1.1,0.2c0.2,0.2,0.4,0.4,0.4,0.8
				C202.6,52.7,202.4,53.1,202,53.4z"/>
			<path class="st0" d="M215.7,50.1c0.1-0.3-0.1-0.5-0.4-0.5h-1.1c-0.2,0-0.4,0.2-0.5,0.4l-0.1,0.1l-0.1,0.3l-1.6,7.2l-0.1,0.2l0,0
				c-0.1,0.2,0.1,0.4,0.3,0.5l0,0h1.2c0.2,0,0.4-0.2,0.5-0.4l0.1-0.1L215.7,50.1L215.7,50.1z"/>
			<path class="st0" d="M196.4,51.6c-0.3,0-1.5,0-1.5,0c-0.3,0-0.6,0.2-0.8,0.5c0,0-1.8,3.1-2,3.4h-0.2l-0.6-3.4
				c-0.1-0.3-0.3-0.5-0.7-0.5h-1.1c-0.3,0-0.4,0.2-0.4,0.5c0,0,0.9,4.9,1,6.1c0.1,0.6,0,0.8,0,0.8l-1.1,2c-0.2,0.3-0.1,0.5,0.2,0.5
				h1.3c0.3,0,0.6-0.2,0.8-0.5l5.1-8.6C196.4,52.4,196.9,51.6,196.4,51.6z"/>
		</g>
		<g>
			<g>
				<rect x="275.6" y="44.2" class="st0" width="1" height="22.6"/>
				<rect x="273.6" y="44.2" class="st0" width="0.5" height="22.6"/>
				<rect x="279.2" y="44.2" class="st0" width="0.5" height="22.6"/>
				<rect x="278.2" y="44.2" class="st0" width="0.5" height="22.6"/>
				<rect x="269.6" y="44.2" class="st0" width="0.5" height="22.6"/>
				<rect x="271.1" y="44.2" class="st0" width="0.5" height="22.6"/>
				<rect x="268.1" y="44.2" class="st0" width="1" height="22.6"/>
				<rect x="280.2" y="44.2" class="st0" width="0.5" height="22.6"/>
				<rect x="290.3" y="44.2" class="st0" width="1" height="22.6"/>
				<rect x="292.8" y="44.2" class="st0" width="1.5" height="22.6"/>
				<rect x="294.8" y="44.2" class="st0" width="0.5" height="22.6"/>
				<rect x="295.8" y="44.2" class="st0" width="1" height="22.6"/>
				<rect x="286.7" y="44.2" class="st0" width="1" height="22.6"/>
				<rect x="288.8" y="44.2" class="st0" width="1" height="22.6"/>
				<rect x="284.7" y="44.2" class="st0" width="1" height="22.6"/>
				<rect x="282.2" y="44.2" class="st0" width="1" height="22.6"/>
			</g>
		</g>
		<g>
			<path class="st0" d="M258.1,55.5c-0.4-1.7-1.3-3-2.6-4c-1-0.8-2.2-1.2-3.5-1.2c-0.8,0-1.6,0.1-2.4,0.3c-0.1,0-0.1,0-0.1,0.1
				c0.3,0.9,0.6,1.8,0.9,2.7c0,0.1,0,0.1,0.1,0.1c1-0.3,2-0.2,2.9,0.3s1.5,1.3,1.7,2.3c0,0.1,0,0.1,0.1,0.1
				C256.2,56,257.2,55.8,258.1,55.5C258.1,55.6,258.1,55.6,258.1,55.5L258.1,55.5z"/>
			<path class="st0" d="M255.2,57.7C255.2,57.7,255.1,57.7,255.2,57.7c-0.6,2.1-2.7,3.3-4.7,2.7c-0.1,0-0.1,0-0.1,0.1
				c-0.3,0.9-0.6,1.8-0.9,2.7c0,0.1,0,0.1,0.1,0.1c1.2,0.4,2.5,0.4,3.7,0.1c2.3-0.6,3.9-2.1,4.7-4.4c0.1-0.2,0.1-0.5,0.2-0.7l0,0
				c0,0,0,0-0.1,0C257.1,58.1,256.2,57.9,255.2,57.7z"/>
			<path class="st0" d="M242.9,60.2c-0.1,0-0.1-0.1-0.1-0.1c0-4.2,0-8.4,0-12.6c0-0.1,0-0.1-0.1-0.1c-0.9,0-1.8,0-2.6,0
				c-0.1,0-0.1,0-0.1,0.1c0,2.1,0,4.3,0,6.4c0,2.1,0,4.1,0,6.2c0,0.2,0,0.5,0.1,0.7c0.2,0.8,0.6,1.4,1.4,1.8
				c0.7,0.3,1.5,0.6,2.2,0.9c0.1,0,0.1,0,0.1-0.1c0.4-0.8,0.7-1.7,1.1-2.5c0-0.1,0-0.1,0-0.1C244.1,60.7,243.5,60.4,242.9,60.2z"/>
			<path class="st0" d="M249.2,54.1c-0.6-0.7-1.3-1.4-1.9-2.2h-0.1c-1.4,1.3-2.2,3-2.2,4.9c0,0.4,0,0.8,0.1,1.2
				c0.3,1.5,1,2.7,2.1,3.7h0.1c0.6-0.7,1.3-1.4,1.9-2.1c0.1-0.1,0-0.1,0-0.1c-0.7-0.6-1.1-1.4-1.1-2.4c-0.1-1.2,0.3-2.2,1.2-3
				C249.2,54.2,249.2,54.2,249.2,54.1z"/>
			<path class="st0" d="M235.3,59L235.3,59c-0.3,0.3-0.5,0.5-0.7,0.7c-0.5,0.5-1.1,0.7-1.8,0.9c-1,0.2-1.9,0.1-2.6-0.6h-0.1
				c-0.5,0.8-1,1.5-1.6,2.3v0.1c1.1,0.7,2.3,1.1,3.4,1.1c1.1,0,1.9-0.2,2.7-0.5c1.2-0.5,2.3-1.3,3-2.4c0-0.1,0-0.1,0-0.1
				C236.9,60,236.1,59.5,235.3,59z"/>
			<path class="st0" d="M235.6,51.2c-1.1-0.6-2.3-1-3.4-1c-0.6,0-1.1,0.1-1.6,0.2c-0.9,0.2-1.7,0.6-2.5,1.2c-0.9,0.8-1.6,1.7-2,2.9
				c-0.4,1.1-0.6,2.2-0.4,3.3c0.1,0.9,0.4,1.7,0.9,2.5c0,0.1,0.1,0.1,0.1,0c0.5-0.2,1.1-0.5,1.6-0.7c2.7-1.2,5.5-2.4,8.2-3.6
				c0.7-0.3,1.3-0.6,2-0.9c0,0,0.1,0,0.1-0.1c-0.2-0.4-0.4-0.9-0.6-1.3C237.5,52.7,236.7,51.8,235.6,51.2z M234.6,54.3
				c-0.4,0.2-0.8,0.3-1.2,0.5c-1.6,0.7-3.1,1.3-4.7,2c-0.1,0.1-0.1,0.1-0.1-0.1v-0.1v-0.1c0-1.1,0.4-2,1.3-2.7
				c0.5-0.4,1.2-0.7,1.9-0.7c1.1-0.2,2,0.3,2.7,1C234.5,54.2,234.6,54.2,234.6,54.3C234.7,54.3,234.7,54.3,234.6,54.3z"/>
		</g>
	</g>
	<g>
		<path class="st0" d="M117.5,27.3c-0.1-4.6-1.4-8.9-3.7-12.8c-0.1-0.1-0.1-0.3-0.2-0.4c0-0.1-0.1-0.2-0.2-0.1
			c-0.1,0.2-0.1,0.4,0.1,0.5l0,0c0,0.2,0,0.5,0,0.7l0,0l0,0c-0.2,0.5-0.4,0.8-1,0.7c-0.6,0-0.8-0.4-0.9-0.9
			c-0.1-0.2-0.1-0.5-0.2-0.7c-0.2-0.9-0.3-1.9-0.7-2.8c-0.6-1.2-1.4-2.2-2.7-3c0.2,0.9,0.4,1.7,0.2,2.5c-0.3,0.8-0.9,1.1-1.7,0.7
			c-0.5-0.3-0.8-0.7-1.1-1.2c-1.4-2.2-1.4-4.4-0.3-6.7c0.1-0.2,0.3-0.4,0.3-0.7c-0.5,0.1-0.9,0.3-1.3,0.5c-2,1-3.4,2.7-4.5,4.7
			c-0.8,1.5-1.4,3.2-2,4.8c-0.2,0.6-0.4,1.2-0.7,1.7c-0.1,0.3-0.4,0.6-0.8,0.5s-0.4-0.5-0.4-0.8c0-0.7,0.2-1.3,0.4-1.9
			c0-0.1,0.2-0.3,0-0.5c-0.2,0.2-0.4,0.4-0.5,0.6c-1.5,1.8-2.7,3.7-3.7,5.9c-1.5,3.4-2.4,6.9-2.1,10.7c0.6,5.9,5,10.8,10.9,12.1
			c5.9,1.3,11.9-1.4,14.9-6.6C117,32.5,117.6,29.9,117.5,27.3z M103.6,34.2c-3.5,0-6.5-2.9-6.4-6.5c0-3.5,2.9-6.4,6.4-6.4
			c3.6,0,6.4,2.8,6.5,6.4C110.1,31.3,107.2,34.2,103.6,34.2z"/>
		<g>
			<path class="st0" d="M178.1,26.3c0-0.5-0.1-1-0.2-1.6c-0.3-1.4-1.3-2.3-2.7-2.4c-1.9-0.2-3.5,0.4-4.6,2c-0.9-2.5-4.6-2.8-6.9-0.5
				c-0.1-0.2-0.1-0.3-0.2-0.5c-0.1-0.6-0.4-0.9-1-0.8s-1.3,0-1.9,0c-0.4,0-0.6,0.1-0.6,0.6c0,3.9,0,7.8,0,11.6
				c0,0.4,0.1,0.5,0.5,0.5c0.8,0,1.6,0,2.4,0c0.6,0,0.7-0.1,0.7-0.7c0-2.5,0-5,0-7.4c0-1.1,0.8-1.8,1.9-1.8c1.1,0,1.6,0.6,1.6,1.8
				c0,2.5,0,5,0,7.5c0,0.5,0.1,0.7,0.6,0.7c0.8,0,1.5-0.1,2.3,0c0.6,0,0.8-0.2,0.8-0.8c0-2.5,0-5,0-7.4c0-1,0.8-1.7,2-1.7
				c1,0,1.6,0.6,1.6,1.7c0,2.5,0,5,0,7.5c0,0.6,0.2,0.8,0.8,0.7c0.8,0,1.5,0,2.3,0c0.5,0,0.7-0.2,0.7-0.7
				C178.1,31.8,178.1,29,178.1,26.3z"/>
			<path class="st0" d="M135.4,29.1c0-1.3,0-2.6-0.1-3.9c-0.2-1.9-1.2-2.9-3.1-3c-1.5-0.1-2.9,0.4-4,1.6c0-2.1,0-4,0-5.8
				c0-0.5-0.1-0.6-0.6-0.6c-0.8,0-1.7,0-2.5,0c-0.4,0-0.6,0.1-0.6,0.6c0,5.6,0,11.1,0,16.7c0,0.4,0.1,0.6,0.5,0.5c0.8,0,1.6,0,2.4,0
				c0.6,0,0.7-0.2,0.7-0.8c0-2.5,0-5,0-7.4c0-1.1,0.8-1.7,1.9-1.7c1.1,0,1.6,0.6,1.6,1.7c0,2.5,0,5,0,7.6c0,0.5,0.2,0.7,0.6,0.6
				c0.8,0,1.6,0,2.4,0c0.5,0,0.6-0.2,0.6-0.6C135.4,32.8,135.4,31,135.4,29.1z"/>
			<path class="st0" d="M157.1,22.5c-0.7,0-1.6,0.2-2-0.1c-0.5-0.4-0.1-1.3-0.1-2c0-1.4,0-1.4-1.4-1.4c-0.5,0-0.7,0.1-0.9,0.6
				c-0.2,0.8-0.5,1.6-0.7,2.4c-0.1,0.4-0.3,0.6-0.7,0.7c-1.6,0.5-1.6,0.5-1.6,2.2c0,0.6,0.2,0.8,0.7,0.7c0.1,0,0.2,0,0.4,0
				c0.5-0.1,0.7,0.1,0.6,0.6c0,0.9,0,1.9,0,3c0.1,1-0.1,2.2,0.1,3.4c0.2,1.3,0.9,2.2,2.1,2.6c1.4,0.4,2.7,0.3,4-0.2
				c0.2-0.1,0.3-0.2,0.3-0.5c0-0.6,0-1.3,0-1.9c0-0.3-0.1-0.4-0.4-0.4c-0.5,0-1,0-1.5,0c-0.6,0-0.9-0.4-0.9-1c0-1.7,0-3.4,0-5.1
				c0-0.4,0.1-0.5,0.5-0.5c0.6,0,1.2,0,1.9,0c0.4,0,0.5-0.1,0.5-0.5c0-0.6,0-1.2,0-1.9C157.8,22.7,157.6,22.5,157.1,22.5z"/>
			<path class="st0" d="M210,32.3c-0.2-0.4-1-0.1-1.5-0.1c0,0,0,0-0.1,0c-0.8,0-1.1-0.3-1.1-1.1c0-1.6,0-3.3,0-4.9
				c0-0.4,0.1-0.6,0.5-0.5c0.6,0,1.2,0,1.9,0c0.4,0,0.5-0.1,0.5-0.5c0-0.6,0-1.2,0-1.8c0.1-0.6-0.1-0.9-0.8-0.8s-1.6,0.2-1.9-0.1
				c-0.4-0.4-0.1-1.3-0.1-2c0-1.5,0-1.5-1.5-1.5c-0.5,0-0.7,0.1-0.8,0.6c-0.2,0.7-0.5,1.4-0.7,2.2c-0.1,0.6-0.5,0.9-1.1,1.1
				c-1.3,0.3-1.3,0.4-1.3,1.7c0,1.1,0,1.1,1.1,1.1c0.5,0,0.6,0.2,0.6,0.6c0,1,0,1.9,0,2.9l0,0c0,1,0,2,0,3c0.1,1.7,1,2.9,2.5,3.2
				c1.2,0.3,2.5,0.2,3.6-0.3c0.2-0.1,0.4-0.1,0.4-0.3C210.1,33.9,210.4,33,210,32.3z"/>
			<path class="st0" d="M199.7,22.3c-1.5,0.2-2.6,0.9-3.4,2.2c-0.1-0.6-0.2-1.1-0.3-1.6c0-0.3-0.2-0.5-0.5-0.5c-0.8,0-1.5,0-2.3,0
				c-0.4,0-0.5,0.1-0.5,0.5c0,3.9,0,7.8,0,11.7c0,0.4,0.2,0.5,0.5,0.5c0.8,0,1.5,0,2.3,0c0.6,0,0.9-0.1,0.8-0.8c0-2,0-4.1,0-6.1
				c0-1.2,0.5-1.8,1.7-2.1c0.6-0.2,1.2-0.2,1.8-0.2c0.5,0,0.7-0.2,0.6-0.6c0-0.8,0-1.7,0-2.5C200.4,22.3,200.2,22.3,199.7,22.3z"/>
			<path class="st0" d="M144.9,22.5c-1.3-0.3-2.6-0.3-3.9,0c-1.7,0.4-2.9,1.4-3.5,3.1c-0.4,1-0.4,2.1-0.5,3.4c0,0.4,0,1,0.1,1.6
				c0.4,3,2,4.6,5,4.9c0.8,0.1,1.7,0.1,2.5-0.1c2.4-0.4,3.7-1.7,4.3-4c0.4-1.7,0.4-3.5,0-5.2C148.3,24.2,147,22.9,144.9,22.5z
				 M144.9,31c-0.3,0.9-0.8,1.3-1.8,1.4c-1,0-1.6-0.4-1.9-1.3c-0.4-1.4-0.4-2.9,0-4.4c0.2-0.9,0.9-1.3,1.8-1.3c1,0,1.6,0.4,1.9,1.4
				c0.2,0.7,0.2,1.5,0.2,2.2C145.1,29.6,145.1,30.3,144.9,31z"/>
			<path class="st0" d="M190.4,25.5c-0.2-1.7-1.1-2.7-2.8-3c-1.8-0.4-3.6-0.2-5.4,0.1c-1.9,0.3-1.9,0.3-1.9,2.3
				c0,0.5,0.2,0.7,0.7,0.7c1.4-0.1,2.9-0.1,4.3,0c0.4,0,0.7,0.1,1,0.3c0.7,0.3,0.6,1,0.5,1.5s-0.5,0.2-0.8,0.2c-1,0-1.9,0-2.9,0
				c-1.8,0.1-3,1.1-3.4,2.6c-0.5,1.9,0.1,3.9,1.4,4.8c0.5,0.4,1.2,0.6,1.8,0.6c1.4,0.1,2.7-0.2,3.7-1.4c0.1,0.2,0.1,0.3,0.2,0.4
				c0.1,0.6,0.4,0.8,1,0.8c0.7-0.1,1.4,0,2.1,0c0.5,0,0.7-0.1,0.7-0.6c0-1.1,0-2.3,0-3.4C190.4,29.3,190.6,27.4,190.4,25.5z
				 M186.4,32c-0.6,0.8-1.9,1.1-2.8,0.6c-0.6-0.4-0.7-1-0.6-1.6c0.1-0.6,0.4-1,1-1.1c0.4-0.1,0.9-0.1,1.2-0.1
				c0.5,0.1,1.2-0.2,1.4,0.2C186.9,30.6,186.9,31.4,186.4,32z"/>
		</g>
	</g>
</g>
</svg>
