<?xml version="1.0" encoding="utf-8"?>
<!-- Generator: Adobe Illustrator 22.1.0, SVG Export Plug-In . SVG Version: 6.00 Build 0)  -->
<svg version="1.1" id="Camada_1" xmlns="http://www.w3.org/2000/svg" xmlns:xlink="http://www.w3.org/1999/xlink" x="0px" y="0px"
	 viewBox="0 0 168.7 172.4" style="enable-background:new 0 0 168.7 172.4;" xml:space="preserve">
<style type="text/css">
	.st0{fill:url(#SVGID_1_);}
	.st1{fill:url(#SVGID_2_);}
	.st2{fill:url(#SVGID_3_);}
	.st3{fill:url(#SVGID_4_);}
	.st4{fill:url(#SVGID_5_);}
	.st5{fill:#D113A5;}
	.st6{fill:none;stroke:#D113A5;stroke-linecap:round;stroke-linejoin:round;stroke-miterlimit:10;}
	.st7{fill:#EF18BD;}
	.st8{fill:url(#SVGID_6_);}
	.st9{fill:none;stroke:url(#SVGID_7_);stroke-width:3;stroke-miterlimit:10;}
	.st10{fill:url(#SVGID_8_);}
	.st11{fill:url(#SVGID_9_);}
</style>
<linearGradient id="SVGID_1_" gradientUnits="userSpaceOnUse" x1="75.7462" y1="125.1267" x2="86.1911" y2="125.1267" gradientTransform="matrix(0.9995 3.007368e-02 -3.007368e-02 0.9995 6.2425 4.1079)">
	<stop  offset="0" style="stop-color:#EF18BD"/>
	<stop  offset="1" style="stop-color:#9513A0"/>
</linearGradient>
<path class="st0" d="M83.8,126.9l0.9,3.2c0,0.1,0.1,0.2,0.3,0.2l3.3,0.1c0.3,0,0.4,0.4,0.2,0.6l-2.7,1.9c-0.1,0.1-0.2,0.2-0.1,0.3
	l0.9,3.2c0.1,0.3-0.2,0.5-0.5,0.3l-2.6-2c-0.1-0.1-0.2-0.1-0.4,0l-2.7,1.9c-0.2,0.2-0.6-0.1-0.5-0.4l1.1-3.1c0-0.1,0-0.3-0.1-0.3
	l-2.6-2c-0.2-0.2-0.1-0.5,0.2-0.5l3.3,0.1c0.1,0,0.2-0.1,0.3-0.2l1.1-3.1C83.4,126.6,83.8,126.6,83.8,126.9z"/>
<linearGradient id="SVGID_2_" gradientUnits="userSpaceOnUse" x1="105.1795" y1="197.7075" x2="115.6243" y2="197.7075" gradientTransform="matrix(0.9599 -0.2803 0.2803 0.9599 -64.0884 -29.0008)">
	<stop  offset="0" style="stop-color:#EF18BD"/>
	<stop  offset="1" style="stop-color:#9513A0"/>
</linearGradient>
<path class="st1" d="M96.2,125.2l1.9,2.7c0.1,0.1,0.2,0.2,0.3,0.1l3.2-0.9c0.3-0.1,0.5,0.2,0.3,0.5l-2,2.6c-0.1,0.1-0.1,0.2,0,0.4
	l1.9,2.7c0.2,0.2-0.1,0.6-0.4,0.5l-3.1-1.1c-0.1,0-0.3,0-0.3,0.1l-2,2.6c-0.2,0.2-0.5,0.1-0.5-0.2l0.1-3.3c0-0.1-0.1-0.2-0.2-0.3
	l-3.1-1.1c-0.3-0.1-0.3-0.5,0-0.6l3.2-0.9c0.1,0,0.2-0.1,0.2-0.3l0.1-3.3C95.7,125,96.1,124.9,96.2,125.2z"/>
<linearGradient id="SVGID_3_" gradientUnits="userSpaceOnUse" x1="110.7434" y1="275.8313" x2="121.1883" y2="275.8313" gradientTransform="matrix(0.8263 -0.5632 0.5632 0.8263 -141.2082 -38.7557)">
	<stop  offset="0" style="stop-color:#EF18BD"/>
	<stop  offset="1" style="stop-color:#9513A0"/>
</linearGradient>
<path class="st2" d="M107.5,119.8l2.6,2c0.1,0.1,0.2,0.1,0.4,0l2.7-1.9c0.2-0.2,0.6,0.1,0.5,0.4l-1.1,3.1c0,0.1,0,0.3,0.1,0.3l2.6,2
	c0.2,0.2,0.1,0.5-0.2,0.5l-3.3-0.1c-0.1,0-0.2,0.1-0.3,0.2l-1.1,3.1c-0.1,0.3-0.5,0.3-0.6,0l-0.9-3.2c0-0.1-0.1-0.2-0.3-0.2
	l-3.3-0.1c-0.3,0-0.4-0.4-0.2-0.6l2.7-1.9c0.1-0.1,0.2-0.2,0.1-0.3l-0.9-3.2C107,119.8,107.3,119.6,107.5,119.8z"/>
<linearGradient id="SVGID_4_" gradientUnits="userSpaceOnUse" x1="-41.149" y1="23.775" x2="-30.7041" y2="23.775" gradientTransform="matrix(0.791 0.6118 -0.6118 0.791 100.338 125.4547)">
	<stop  offset="0" style="stop-color:#EF18BD"/>
	<stop  offset="1" style="stop-color:#9513A0"/>
</linearGradient>
<path class="st3" d="M60.5,118.7l-1.1,3.1c0,0.1,0,0.3,0.1,0.3l2.6,2c0.2,0.2,0.1,0.5-0.2,0.5l-3.3-0.1c-0.1,0-0.2,0.1-0.3,0.2
	l-1.1,3.1c-0.1,0.3-0.5,0.3-0.6,0l-0.9-3.2c0-0.1-0.1-0.2-0.3-0.2l-3.3-0.1c-0.3,0-0.4-0.4-0.2-0.6l2.7-1.9c0.1-0.1,0.2-0.2,0.1-0.3
	l-0.9-3.2c-0.1-0.3,0.2-0.5,0.5-0.3l2.6,2c0.1,0.1,0.2,0.1,0.4,0l2.7-1.9C60.3,118.2,60.6,118.4,60.5,118.7z"/>
<linearGradient id="SVGID_5_" gradientUnits="userSpaceOnUse" x1="25.3249" y1="65.1937" x2="35.7697" y2="65.1937" gradientTransform="matrix(0.9413 0.3375 -0.3375 0.9413 62.8999 57.3297)">
	<stop  offset="0" style="stop-color:#EF18BD"/>
	<stop  offset="1" style="stop-color:#9513A0"/>
</linearGradient>
<path class="st4" d="M71.5,124.6l-0.1,3.3c0,0.1,0.1,0.2,0.2,0.3l3.1,1.1c0.3,0.1,0.3,0.5,0,0.6l-3.2,0.9c-0.1,0-0.2,0.1-0.2,0.3
	l-0.1,3.3c0,0.3-0.4,0.4-0.6,0.2l-1.9-2.7c-0.1-0.1-0.2-0.2-0.3-0.1l-3.2,0.9c-0.3,0.1-0.5-0.2-0.3-0.5l2-2.6c0.1-0.1,0.1-0.2,0-0.4
	l-1.9-2.7c-0.2-0.2,0.1-0.6,0.4-0.5l3.1,1.1c0.1,0,0.3,0,0.3-0.1l2-2.6C71.2,124.2,71.5,124.3,71.5,124.6z"/>
<path class="st5" d="M50.7,116.4c-0.1,0-0.3-0.1-0.4-0.2c-7-8.2-10.8-18.6-10.8-29.3c0-0.3,0.2-0.5,0.5-0.5s0.5,0.2,0.5,0.5
	c0,10.5,3.7,20.7,10.6,28.7c0.2,0.2,0.2,0.5-0.1,0.7C50.9,116.4,50.8,116.4,50.7,116.4z"/>
<path class="st6" d="M116.9,118.1"/>
<path class="st5" d="M116.9,118.6c-0.1,0-0.3,0-0.3-0.1c-0.2-0.2-0.2-0.5,0-0.7c8.1-8.3,12.5-19.3,12.5-30.9c0-0.3,0.2-0.5,0.5-0.5
	s0.5,0.2,0.5,0.5c0,11.9-4.6,23.1-12.8,31.6C117.1,118.5,117,118.6,116.9,118.6z"/>
<g>
	<path class="st7" d="M48.2,70.5c0.1,0,0.2,0.1,0.3,0.1s0.1,0.1,0.2,0.1c0,0,0.1,0.1,0.1,0.1c0,0,0,0.1,0,0.1l-1.4,4.3
		c0,0,0,0.1-0.1,0.1c0,0-0.1,0-0.1,0s-0.1,0-0.2,0c-0.1,0-0.2,0-0.3-0.1c-0.1,0-0.2-0.1-0.3-0.1c-0.1,0-0.1-0.1-0.2-0.1
		c0,0-0.1-0.1-0.1-0.1c0,0,0-0.1,0-0.1l0.5-1.5l-5.1-1.6l0.3,1.5c0,0.1,0,0.2,0,0.3c0,0.1,0,0.1-0.1,0.1c0,0-0.1,0-0.2,0
		s-0.2,0-0.4-0.1c-0.1,0-0.2-0.1-0.2-0.1s-0.1-0.1-0.2-0.1c0,0-0.1-0.1-0.1-0.1s0-0.1-0.1-0.1l-0.6-2c0,0,0-0.1,0-0.1
		c0,0,0-0.1,0-0.1c0-0.1,0-0.1,0-0.2c0-0.1,0.1-0.2,0.1-0.3c0-0.2,0.1-0.3,0.1-0.4c0-0.1,0.1-0.2,0.1-0.2c0,0,0.1-0.1,0.1-0.1
		c0,0,0.1,0,0.1,0l6.5,2l0.4-1.3c0,0,0-0.1,0.1-0.1s0.1,0,0.1,0c0.1,0,0.1,0,0.2,0S48.1,70.5,48.2,70.5z"/>
	<path class="st7" d="M47.9,63c0.6,0.3,1.1,0.6,1.5,0.9c0.4,0.3,0.8,0.7,1,1.1c0.2,0.4,0.3,0.8,0.3,1.2c0,0.4-0.1,0.9-0.4,1.4
		c-0.3,0.5-0.5,0.9-0.9,1.1c-0.3,0.2-0.7,0.4-1.1,0.4c-0.4,0-0.9,0-1.4-0.2c-0.5-0.2-1.1-0.4-1.6-0.7c-0.6-0.3-1.1-0.6-1.5-0.9
		c-0.4-0.3-0.8-0.7-1-1.1c-0.2-0.4-0.3-0.8-0.3-1.2c0-0.4,0.1-0.9,0.4-1.4c0.3-0.5,0.5-0.9,0.9-1.1c0.3-0.2,0.7-0.4,1.1-0.4
		c0.4,0,0.9,0,1.4,0.2S47.4,62.7,47.9,63z M47.3,64.6c-0.3-0.2-0.7-0.3-0.9-0.4c-0.3-0.1-0.5-0.2-0.7-0.3c-0.2-0.1-0.4-0.1-0.6-0.1
		s-0.3,0-0.4,0c-0.1,0-0.2,0.1-0.3,0.2s-0.2,0.2-0.2,0.3c-0.1,0.2-0.2,0.4-0.1,0.6c0,0.2,0.1,0.4,0.3,0.6c0.2,0.2,0.4,0.4,0.7,0.6
		c0.3,0.2,0.7,0.4,1.1,0.6c0.5,0.3,1,0.5,1.3,0.6c0.4,0.1,0.7,0.2,0.9,0.2s0.4,0,0.6-0.1c0.2-0.1,0.3-0.2,0.4-0.4
		c0.1-0.1,0.1-0.3,0.1-0.4c0-0.1,0-0.3-0.1-0.4c-0.1-0.1-0.1-0.3-0.3-0.4c-0.1-0.1-0.3-0.3-0.4-0.4c-0.2-0.1-0.4-0.3-0.6-0.4
		S47.6,64.7,47.3,64.6z"/>
	<path class="st7" d="M51.9,57.4c0.5,0.4,1,0.8,1.3,1.2s0.6,0.8,0.8,1.2s0.2,0.8,0.1,1.3s-0.3,0.9-0.6,1.3c-0.3,0.5-0.7,0.8-1.1,1
		c-0.4,0.2-0.8,0.3-1.2,0.2c-0.4,0-0.9-0.2-1.3-0.4c-0.5-0.2-1-0.5-1.5-0.9c-0.5-0.4-1-0.8-1.3-1.2c-0.4-0.4-0.6-0.8-0.8-1.2
		c-0.2-0.4-0.2-0.8-0.1-1.3c0.1-0.4,0.3-0.9,0.6-1.3c0.3-0.5,0.7-0.8,1.1-1c0.4-0.2,0.8-0.3,1.2-0.2c0.4,0,0.9,0.2,1.3,0.4
		C50.9,56.7,51.4,57,51.9,57.4z M51,58.8c-0.3-0.2-0.6-0.4-0.9-0.6c-0.3-0.2-0.5-0.3-0.7-0.4c-0.2-0.1-0.4-0.2-0.5-0.2
		c-0.2,0-0.3,0-0.4,0c-0.1,0-0.2,0.1-0.3,0.1c-0.1,0.1-0.2,0.2-0.3,0.3c-0.1,0.2-0.2,0.4-0.2,0.6c0,0.2,0.1,0.4,0.2,0.6
		c0.1,0.2,0.3,0.4,0.6,0.7c0.3,0.2,0.6,0.5,1,0.8c0.5,0.3,0.9,0.6,1.2,0.8c0.3,0.2,0.6,0.3,0.9,0.4c0.2,0.1,0.4,0,0.6,0
		c0.2-0.1,0.3-0.2,0.4-0.4c0.1-0.1,0.2-0.3,0.2-0.4c0-0.1,0-0.3,0-0.4c0-0.1-0.1-0.3-0.2-0.4c-0.1-0.1-0.2-0.3-0.4-0.5
		c-0.1-0.2-0.3-0.3-0.5-0.5C51.5,59.2,51.3,59,51,58.8z"/>
	<path class="st7" d="M53.9,52.4c0.2,0.2,0.4,0.5,0.5,0.7c0.1,0.2,0.2,0.5,0.2,0.7s0,0.5-0.1,0.7c-0.1,0.2-0.3,0.5-0.5,0.7
		c-0.3,0.2-0.5,0.4-0.8,0.5c-0.2,0.1-0.5,0.1-0.7,0.1c-0.2,0-0.5-0.1-0.7-0.3c-0.2-0.2-0.4-0.3-0.7-0.6c-0.2-0.2-0.4-0.5-0.5-0.7
		c-0.1-0.2-0.2-0.5-0.2-0.7c0-0.2,0-0.5,0.1-0.7c0.1-0.2,0.3-0.5,0.5-0.7c0.3-0.3,0.5-0.4,0.8-0.5s0.5-0.1,0.7-0.1
		c0.2,0,0.5,0.1,0.7,0.3C53.5,52,53.7,52.2,53.9,52.4z M53.1,53.3c-0.2-0.2-0.3-0.3-0.4-0.4c-0.1-0.1-0.2-0.2-0.4-0.2
		c-0.1,0-0.2,0-0.3,0c-0.1,0-0.2,0.1-0.3,0.2c-0.1,0.1-0.1,0.2-0.2,0.2c0,0.1,0,0.2,0,0.3c0,0.1,0.1,0.2,0.2,0.4s0.2,0.3,0.4,0.5
		c0.2,0.2,0.3,0.3,0.5,0.4s0.3,0.2,0.4,0.2c0.1,0,0.2,0,0.3,0c0.1,0,0.2-0.1,0.2-0.2c0.1-0.1,0.1-0.2,0.2-0.3c0-0.1,0-0.2,0-0.3
		s-0.1-0.2-0.2-0.4C53.3,53.6,53.2,53.4,53.1,53.3z M56.9,58.1c0,0.1,0,0.1,0,0.2c0,0,0,0.1-0.1,0.2c0,0.1-0.1,0.1-0.1,0.2
		s-0.1,0.1-0.2,0.2c-0.1,0.1-0.2,0.2-0.3,0.2c-0.1,0-0.1,0.1-0.2,0.1c0,0-0.1,0-0.1-0.1c0,0,0-0.1-0.1-0.2L54.7,49
		c0-0.1,0-0.1,0-0.2s0-0.1,0.1-0.2c0-0.1,0.1-0.1,0.1-0.2c0.1-0.1,0.1-0.1,0.2-0.2c0.1-0.1,0.2-0.2,0.3-0.2s0.1-0.1,0.2-0.1
		s0.1,0,0.1,0.1c0,0,0,0.1,0.1,0.2L56.9,58.1z M60.4,52c0.2,0.2,0.4,0.5,0.5,0.7c0.1,0.2,0.2,0.5,0.2,0.7c0,0.2,0,0.5-0.1,0.7
		c-0.1,0.2-0.3,0.5-0.5,0.7c-0.3,0.2-0.5,0.4-0.8,0.5c-0.2,0.1-0.5,0.1-0.7,0.1c-0.2,0-0.5-0.1-0.7-0.3c-0.2-0.2-0.4-0.3-0.7-0.6
		c-0.2-0.2-0.4-0.5-0.5-0.7c-0.1-0.2-0.2-0.5-0.2-0.7c0-0.2,0-0.5,0.1-0.7c0.1-0.2,0.3-0.5,0.5-0.7c0.3-0.3,0.5-0.4,0.8-0.5
		c0.3-0.1,0.5-0.1,0.7-0.1c0.2,0,0.5,0.1,0.7,0.3C60,51.6,60.2,51.8,60.4,52z M59.5,52.9c-0.2-0.2-0.3-0.3-0.4-0.4
		c-0.1-0.1-0.2-0.2-0.4-0.2c-0.1,0-0.2,0-0.3,0c-0.1,0-0.2,0.1-0.3,0.2C58,52.5,58,52.6,58,52.6c0,0.1,0,0.2,0,0.3
		c0,0.1,0.1,0.2,0.2,0.4c0.1,0.1,0.2,0.3,0.4,0.5c0.2,0.2,0.3,0.3,0.5,0.4c0.1,0.1,0.3,0.2,0.4,0.2c0.1,0,0.2,0,0.3,0
		c0.1,0,0.2-0.1,0.2-0.2C60,54.2,60,54.1,60,54c0-0.1,0-0.2,0-0.3c0-0.1-0.1-0.2-0.2-0.4C59.7,53.2,59.6,53.1,59.5,52.9z"/>
	<path class="st7" d="M69.1,44.9c0.3,0.7,0.5,1.3,0.6,1.9c0.1,0.6,0,1.1-0.2,1.5c-0.2,0.5-0.5,0.9-0.9,1.3c-0.4,0.4-0.9,0.7-1.6,1
		l-1.8,0.9c-0.1,0.1-0.3,0.1-0.4,0s-0.2-0.1-0.3-0.3l-3.2-6.4c-0.1-0.2-0.1-0.3,0-0.4c0-0.1,0.1-0.2,0.3-0.3l1.9-0.9
		c0.7-0.3,1.3-0.5,1.8-0.6c0.5-0.1,1,0,1.5,0.1c0.5,0.1,0.9,0.4,1.3,0.8C68.5,43.8,68.8,44.3,69.1,44.9z M67.6,45.7
		c-0.2-0.3-0.4-0.7-0.6-0.9c-0.2-0.3-0.5-0.5-0.8-0.6C65.9,44,65.6,44,65.3,44s-0.7,0.1-1.2,0.4l-0.8,0.4l2.5,5l0.8-0.4
		c0.4-0.2,0.7-0.4,1-0.7c0.2-0.2,0.4-0.5,0.5-0.8c0.1-0.3,0.1-0.6,0-1C67.9,46.5,67.8,46.1,67.6,45.7z"/>
	<path class="st7" d="M76.4,46.4c0,0.1,0.1,0.2,0.1,0.3c0,0.1,0,0.2,0,0.2c0,0.1,0,0.1,0,0.1c0,0-0.1,0.1-0.1,0.1l-4,1.1
		c-0.1,0-0.3,0-0.4,0c-0.1-0.1-0.2-0.2-0.2-0.3l-2-6.9c-0.1-0.2,0-0.3,0-0.4c0.1-0.1,0.2-0.2,0.3-0.2l3.9-1.1c0,0,0.1,0,0.1,0
		c0,0,0.1,0,0.1,0.1s0.1,0.1,0.1,0.2c0,0.1,0.1,0.2,0.1,0.3c0,0.1,0.1,0.2,0.1,0.3c0,0.1,0,0.2,0,0.2s0,0.1,0,0.1s-0.1,0.1-0.1,0.1
		l-2.8,0.8l0.5,1.9l2.4-0.7c0,0,0.1,0,0.1,0c0,0,0.1,0,0.1,0.1c0,0,0.1,0.1,0.1,0.2c0,0.1,0.1,0.2,0.1,0.3c0,0.1,0.1,0.2,0.1,0.3
		c0,0.1,0,0.1,0,0.2c0,0.1,0,0.1,0,0.1c0,0-0.1,0-0.1,0.1l-2.4,0.7l0.6,2.2l2.8-0.8c0,0,0.1,0,0.1,0s0.1,0,0.1,0.1
		c0,0,0.1,0.1,0.1,0.2C76.4,46.2,76.4,46.3,76.4,46.4z"/>
	<path class="st7" d="M86.9,39.3c0,0.1,0,0.2,0,0.3c0,0.1,0,0.2,0,0.2c0,0.1,0,0.1-0.1,0.1c0,0-0.1,0-0.1,0c-0.1,0-0.1,0-0.3-0.1
		c-0.1-0.1-0.3-0.2-0.5-0.2c-0.2-0.1-0.4-0.2-0.7-0.2c-0.3-0.1-0.6-0.1-1-0.1c-0.4,0-0.8,0.1-1.1,0.2c-0.3,0.1-0.6,0.3-0.8,0.6
		c-0.2,0.3-0.4,0.6-0.5,0.9c-0.1,0.4-0.2,0.7-0.2,1.2c0,0.5,0.1,0.9,0.2,1.2c0.1,0.4,0.3,0.6,0.5,0.9c0.2,0.2,0.5,0.4,0.8,0.5
		c0.3,0.1,0.7,0.2,1,0.2c0.2,0,0.4,0,0.5-0.1s0.3-0.1,0.5-0.2l0-1.9l-1.6,0c-0.1,0-0.1,0-0.2-0.1c0-0.1-0.1-0.3-0.1-0.5
		c0-0.1,0-0.2,0-0.3s0-0.1,0-0.2c0,0,0-0.1,0.1-0.1c0,0,0.1,0,0.1,0l2.8-0.1c0.1,0,0.1,0,0.2,0c0.1,0,0.1,0.1,0.1,0.1
		c0,0,0.1,0.1,0.1,0.2c0,0.1,0,0.1,0,0.2l0.1,3.3c0,0.1,0,0.2-0.1,0.3c0,0.1-0.1,0.2-0.3,0.2s-0.3,0.1-0.5,0.2
		c-0.2,0.1-0.4,0.1-0.6,0.2s-0.4,0.1-0.7,0.1c-0.2,0-0.4,0-0.7,0c-0.7,0-1.2-0.1-1.8-0.2c-0.5-0.2-1-0.4-1.3-0.8
		c-0.4-0.3-0.7-0.8-0.9-1.3c-0.2-0.5-0.3-1.1-0.3-1.7c0-0.7,0.1-1.3,0.3-1.8c0.2-0.5,0.5-1,0.8-1.4c0.4-0.4,0.8-0.7,1.3-0.9
		s1.1-0.3,1.8-0.3c0.4,0,0.7,0,1,0c0.3,0,0.6,0.1,0.8,0.2c0.2,0.1,0.4,0.1,0.5,0.2c0.1,0.1,0.3,0.1,0.3,0.2c0.1,0.1,0.1,0.1,0.1,0.2
		C86.8,38.9,86.8,39.1,86.9,39.3z"/>
	<path class="st7" d="M95,46.9c0,0.2,0,0.3,0,0.4c0,0.1,0,0.2-0.1,0.2c-0.1,0-0.1,0-0.3,0c-0.1,0-0.3,0-0.5-0.1
		c-0.2,0-0.4-0.1-0.5-0.1s-0.2-0.1-0.3-0.1c-0.1,0-0.1-0.1-0.1-0.1c0,0,0-0.1,0-0.1l-0.3-1.7l-3-0.5l-0.8,1.5c0,0.1-0.1,0.1-0.1,0.1
		c0,0-0.1,0.1-0.1,0.1c-0.1,0-0.2,0-0.3,0c-0.1,0-0.3,0-0.4-0.1c-0.2,0-0.3-0.1-0.4-0.1c-0.1,0-0.2-0.1-0.2-0.1c0-0.1,0-0.1,0-0.2
		c0-0.1,0.1-0.2,0.2-0.3l3.7-6.7c0-0.1,0.1-0.1,0.1-0.2c0,0,0.1-0.1,0.2-0.1c0.1,0,0.2,0,0.3,0c0.1,0,0.3,0,0.5,0.1
		c0.2,0,0.4,0.1,0.6,0.1c0.1,0,0.3,0.1,0.3,0.1c0.1,0,0.1,0.1,0.2,0.1c0,0.1,0,0.1,0.1,0.2L95,46.9z M92.4,40.3L92.4,40.3l-1.8,3.2
		l2.3,0.4L92.4,40.3z"/>
	<path class="st7" d="M101.4,49.7c0,0,0,0.1-0.1,0.1c0,0-0.1,0-0.1,0s-0.2,0-0.3-0.1c-0.1,0-0.3-0.1-0.5-0.2
		c-0.2-0.1-0.3-0.1-0.4-0.2c-0.1,0-0.2-0.1-0.2-0.1c0,0-0.1-0.1-0.1-0.1c0,0,0-0.1,0-0.1l0-2c0-0.2,0-0.4,0-0.6
		c0-0.2-0.1-0.3-0.1-0.5c-0.1-0.1-0.1-0.3-0.3-0.4c-0.1-0.1-0.2-0.2-0.4-0.2l-0.5-0.2l-1.1,2.9c0,0,0,0.1-0.1,0.1c0,0-0.1,0-0.2,0
		c-0.1,0-0.2,0-0.3,0c-0.1,0-0.2-0.1-0.4-0.1C96.2,48.1,96.1,48,96,48c-0.1,0-0.2-0.1-0.2-0.1c-0.1,0-0.1-0.1-0.1-0.1
		c0,0,0-0.1,0-0.1l2.6-7c0.1-0.2,0.2-0.3,0.3-0.3c0.1,0,0.2,0,0.4,0l2,0.8c0.2,0.1,0.4,0.1,0.5,0.2c0.1,0.1,0.2,0.1,0.3,0.2
		c0.3,0.2,0.5,0.3,0.7,0.5s0.4,0.4,0.5,0.7c0.1,0.2,0.2,0.5,0.2,0.8c0,0.3-0.1,0.6-0.2,0.9c-0.1,0.3-0.2,0.5-0.4,0.7
		s-0.3,0.3-0.5,0.5c-0.2,0.1-0.4,0.2-0.6,0.3c-0.2,0.1-0.5,0.1-0.7,0.1c0.1,0.1,0.2,0.2,0.2,0.3s0.1,0.3,0.2,0.4
		c0,0.1,0.1,0.3,0.1,0.5c0,0.2,0,0.4,0,0.6l0.1,1.8c0,0.2,0,0.3,0,0.4C101.4,49.6,101.4,49.7,101.4,49.7z M101.4,43.8
		c0.1-0.3,0.1-0.5,0.1-0.7c0-0.2-0.2-0.4-0.4-0.6c-0.1-0.1-0.2-0.1-0.3-0.2c-0.1,0-0.2-0.1-0.4-0.2l-0.7-0.3l-0.8,2.2l0.8,0.3
		c0.2,0.1,0.4,0.1,0.6,0.1c0.2,0,0.4,0,0.5-0.1c0.1-0.1,0.3-0.1,0.4-0.3S101.3,43.9,101.4,43.8z"/>
	<path class="st7" d="M108.1,53.3c0,0.2-0.1,0.3-0.1,0.4c0,0.1-0.1,0.1-0.1,0.1s-0.1,0-0.3-0.1s-0.2-0.1-0.4-0.2
		c-0.2-0.1-0.3-0.2-0.4-0.3c-0.1-0.1-0.2-0.1-0.2-0.2s-0.1-0.1-0.1-0.1c0,0,0-0.1,0-0.1l0.4-1.7l-2.6-1.6l-1.3,1.1
		c0,0-0.1,0.1-0.1,0.1c0,0-0.1,0-0.2,0c-0.1,0-0.1,0-0.2-0.1c-0.1-0.1-0.2-0.1-0.4-0.2c-0.2-0.1-0.3-0.2-0.4-0.3
		c-0.1-0.1-0.1-0.1-0.1-0.2s0-0.1,0.1-0.2c0.1-0.1,0.1-0.2,0.3-0.3l6-4.9c0.1,0,0.1-0.1,0.2-0.1c0.1,0,0.1,0,0.2,0s0.2,0.1,0.3,0.1
		c0.1,0.1,0.3,0.2,0.5,0.3c0.2,0.1,0.4,0.2,0.5,0.3c0.1,0.1,0.2,0.2,0.3,0.2c0.1,0.1,0.1,0.1,0.1,0.2c0,0.1,0,0.1,0,0.2L108.1,53.3z
		 M108.1,46.2L108.1,46.2l-2.8,2.4l2,1.2L108.1,46.2z"/>
	<path class="st7" d="M113.7,58.5c-0.1,0.1-0.1,0.1-0.2,0.2c-0.1,0-0.2,0-0.2,0c-0.1,0-0.2,0-0.2-0.1c-0.1,0-0.1-0.1-0.2-0.1
		l-0.5-0.5c-0.1-0.1-0.2-0.2-0.3-0.3c-0.1-0.1-0.1-0.2-0.1-0.3c0-0.1,0-0.3,0-0.4c0-0.2,0.1-0.3,0.1-0.6l1.1-4.2
		c0.1-0.2,0.1-0.5,0.2-0.8c0.1-0.3,0.2-0.5,0.3-0.8l0,0c-0.2,0.2-0.4,0.5-0.6,0.7c-0.2,0.2-0.4,0.5-0.6,0.7l-2.9,3.1
		c0,0-0.1,0.1-0.1,0.1c0,0-0.1,0-0.1,0c-0.1,0-0.1-0.1-0.2-0.1c-0.1-0.1-0.2-0.1-0.3-0.2c-0.1-0.1-0.2-0.2-0.3-0.3
		c-0.1-0.1-0.1-0.1-0.1-0.2c0-0.1,0-0.1,0-0.1c0,0,0-0.1,0.1-0.1l5-5.4c0.1-0.1,0.3-0.2,0.4-0.2c0.2,0,0.3,0.1,0.4,0.2l0.7,0.6
		c0.1,0.1,0.2,0.2,0.3,0.3c0.1,0.1,0.1,0.2,0.1,0.3c0,0.1,0,0.2,0,0.4c0,0.1-0.1,0.3-0.1,0.5l-0.9,3.3c-0.1,0.2-0.1,0.4-0.2,0.6
		s-0.1,0.4-0.2,0.6c-0.1,0.2-0.1,0.4-0.2,0.5c-0.1,0.2-0.1,0.4-0.2,0.5l0,0c0.2-0.2,0.4-0.5,0.6-0.7c0.2-0.2,0.4-0.5,0.6-0.7
		l2.6-2.8c0,0,0.1-0.1,0.1-0.1c0,0,0.1,0,0.2,0c0.1,0,0.1,0.1,0.2,0.1c0.1,0.1,0.2,0.1,0.3,0.2c0.1,0.1,0.2,0.2,0.3,0.3
		c0.1,0.1,0.1,0.1,0.1,0.2s0,0.1,0,0.1c0,0,0,0.1-0.1,0.1L113.7,58.5z"/>
	<path class="st7" d="M123.5,60c-0.1,0.1-0.2,0.1-0.3,0.2s-0.1,0.1-0.2,0.1c-0.1,0-0.1,0-0.1,0c0,0-0.1,0-0.1-0.1l-1.2-1.7l-5.3,3.9
		c0,0-0.1,0-0.1,0s-0.1,0-0.1-0.1c-0.1,0-0.1-0.1-0.2-0.2c-0.1-0.1-0.2-0.2-0.3-0.3c-0.1-0.1-0.2-0.2-0.2-0.3
		c-0.1-0.1-0.1-0.2-0.1-0.2c0-0.1,0-0.1,0-0.2c0,0,0-0.1,0.1-0.1l5.3-3.9l-1.2-1.7c0,0,0-0.1,0-0.1c0,0,0-0.1,0-0.1
		c0,0,0.1-0.1,0.1-0.2c0.1-0.1,0.1-0.1,0.2-0.2c0.1-0.1,0.2-0.1,0.3-0.2c0.1,0,0.1-0.1,0.2-0.1c0.1,0,0.1,0,0.1,0c0,0,0.1,0,0.1,0.1
		l3.4,4.7c0,0,0,0.1,0,0.1c0,0,0,0.1,0,0.1c0,0-0.1,0.1-0.1,0.2C123.7,59.8,123.6,59.9,123.5,60z"/>
	<path class="st7" d="M118.7,66.5c0,0-0.1,0-0.1,0c0,0-0.1,0-0.1-0.1c-0.1,0-0.1-0.1-0.2-0.2c-0.1-0.1-0.1-0.2-0.2-0.3
		c-0.1-0.1-0.1-0.3-0.2-0.4c0-0.1-0.1-0.2-0.1-0.2c0-0.1,0-0.1,0-0.2c0,0,0-0.1,0.1-0.1l6.8-3.8c0,0,0.1,0,0.1,0c0,0,0.1,0,0.1,0.1
		c0.1,0,0.1,0.1,0.2,0.2c0.1,0.1,0.1,0.2,0.2,0.3c0.1,0.1,0.1,0.3,0.2,0.4s0.1,0.2,0.1,0.2c0,0.1,0,0.1,0,0.2c0,0,0,0.1-0.1,0.1
		L118.7,66.5z"/>
	<path class="st7" d="M122.3,73.9c-0.1,0.1-0.2,0.2-0.3,0.2c-0.1,0-0.1,0.1-0.2,0s-0.1-0.1-0.2-0.2c-0.1-0.1-0.1-0.3-0.2-0.4
		c-0.1-0.2-0.1-0.4-0.2-0.5c0-0.1-0.1-0.2-0.1-0.3c0-0.1,0-0.1,0-0.2c0,0,0.1-0.1,0.1-0.1l1.3-1.1l-1.1-2.9l-1.7,0.1
		c-0.1,0-0.1,0-0.2,0c0,0-0.1,0-0.1-0.1c0,0-0.1-0.1-0.1-0.2c0-0.1-0.1-0.2-0.2-0.4c-0.1-0.2-0.1-0.3-0.2-0.4c0-0.1,0-0.2,0-0.2
		c0-0.1,0.1-0.1,0.2-0.1c0.1,0,0.2,0,0.4,0l7.7-0.3c0.1,0,0.1,0,0.2,0c0.1,0,0.1,0.1,0.2,0.1c0,0.1,0.1,0.2,0.2,0.3
		c0.1,0.1,0.1,0.3,0.2,0.5c0.1,0.2,0.2,0.4,0.2,0.6c0,0.1,0.1,0.3,0.1,0.3c0,0.1,0,0.2,0,0.2c0,0.1-0.1,0.1-0.1,0.2L122.3,73.9z
		 M126.6,68.2L126.6,68.2l-3.7,0.2l0.8,2.2L126.6,68.2z"/>
</g>
<linearGradient id="SVGID_6_" gradientUnits="userSpaceOnUse" x1="51.3028" y1="86.8785" x2="118.212" y2="86.8785">
	<stop  offset="0" style="stop-color:#EF18BD"/>
	<stop  offset="1" style="stop-color:#9513A0"/>
</linearGradient>
<path class="st8" d="M84.8,120.3c-18.4,0-33.5-15-33.5-33.5c0-18.4,15-33.5,33.5-33.5s33.5,15,33.5,33.5
	C118.2,105.3,103.2,120.3,84.8,120.3z M84.8,57.4c-16.2,0-29.5,13.2-29.5,29.5s13.2,29.5,29.5,29.5s29.5-13.2,29.5-29.5
	S101,57.4,84.8,57.4z"/>
<linearGradient id="SVGID_7_" gradientUnits="userSpaceOnUse" x1="24.2576" y1="86.8785" x2="145.2573" y2="86.8785">
	<stop  offset="0" style="stop-color:#EF18BD"/>
	<stop  offset="1" style="stop-color:#9513A0"/>
</linearGradient>
<path class="st9" d="M84.8,145.9c-32.5,0-59-26.5-59-59c0-32.5,26.5-59,59-59s59,26.5,59,59C143.8,119.4,117.3,145.9,84.8,145.9z"/>
<g>
	<linearGradient id="SVGID_8_" gradientUnits="userSpaceOnUse" x1="66.0409" y1="84.2573" x2="100.8483" y2="84.2573">
		<stop  offset="0" style="stop-color:#EF18BD"/>
		<stop  offset="1" style="stop-color:#9513A0"/>
	</linearGradient>
	<path class="st10" d="M99.8,90.7c0.7-0.9,1.1-1.9,1-3c0-1.1-0.6-2-1-2.6c0.5-1.2,0.7-3.1-1-4.6c-1.2-1.1-3.2-1.6-6-1.4
		c-2,0.1-3.6,0.5-3.7,0.5h0c-0.4,0.1-0.8,0.1-1.2,0.2c0-0.5,0.1-1.7,0.9-4.4c1-3.2,1-5.6-0.2-7.3c-1.2-1.7-3.2-1.8-3.8-1.8
		c-0.6,0-1.1,0.2-1.4,0.7c-0.8,1-0.7,2.7-0.6,3.6c-1,2.7-3.8,9.2-6.1,11c0,0-0.1,0.1-0.1,0.1c-0.7,0.7-1.2,1.5-1.5,2.2
		c-0.4-0.2-0.9-0.4-1.5-0.4h-4.6c-1.7,0-3.1,1.4-3.1,3.1v12.2c0,1.7,1.4,3.1,3.1,3.1h4.6c0.7,0,1.3-0.2,1.8-0.6l1.8,0.2
		c0.3,0,5.1,0.6,10,0.5c0.9,0.1,1.7,0.1,2.5,0.1c1.3,0,2.5-0.1,3.5-0.3c2.3-0.5,3.9-1.5,4.6-2.9c0.6-1.1,0.6-2.2,0.5-2.9
		c1.5-1.3,1.8-2.8,1.7-3.9C100.1,91.6,99.9,91.1,99.8,90.7z M69.2,99.8c-0.6,0-1.1-0.5-1.1-1.1V86.6c0-0.6,0.5-1.1,1.1-1.1h4.6
		c0.6,0,1.1,0.5,1.1,1.1v12.2c0,0.6-0.5,1.1-1.1,1.1L69.2,99.8L69.2,99.8z M97.9,89.8c-0.3,0.3-0.4,0.8-0.1,1.2c0,0,0.3,0.5,0.3,1.3
		c0.1,1-0.4,1.8-1.4,2.6c-0.4,0.3-0.5,0.7-0.3,1.2c0,0,0.3,1-0.2,1.9c-0.5,0.9-1.6,1.5-3.3,1.9c-1.4,0.3-3.2,0.3-5.5,0.2
		c0,0-0.1,0-0.1,0c-4.8,0.1-9.7-0.5-9.7-0.5h0l-0.8-0.1c0-0.2,0.1-0.4,0.1-0.7V86.6c0-0.3-0.1-0.6-0.1-0.9c0.1-0.5,0.5-1.6,1.4-2.6
		c3.4-2.7,6.6-11.7,6.8-12c0.1-0.2,0.1-0.3,0-0.5c-0.1-0.8-0.1-1.9,0.1-2.2c0.4,0,1.5,0.1,2.1,1c0.8,1.1,0.7,2.9-0.1,5.4
		c-1.3,3.8-1.4,5.8-0.4,6.7c0.5,0.4,1.2,0.5,1.6,0.3c0.5-0.1,0.9-0.2,1.3-0.3c0,0,0.1,0,0.1,0c2.3-0.5,6.4-0.8,7.8,0.5
		c1.2,1.1,0.4,2.6,0.3,2.7c-0.3,0.4-0.2,1,0.2,1.3c0,0,0.8,0.7,0.8,1.7C98.9,88.5,98.5,89.1,97.9,89.8z"/>
</g>
<linearGradient id="SVGID_9_" gradientUnits="userSpaceOnUse" x1="0.9023" y1="86.2121" x2="167.7644" y2="86.2121">
	<stop  offset="0" style="stop-color:#EF18BD"/>
	<stop  offset="1" style="stop-color:#9513A0"/>
</linearGradient>
<path class="st11" d="M158.5,97.2c0.1-0.6,0.4-1.1,0.8-1.5c0,0,0,0,0,0l7.7-7.7c1-1,1-2.5,0-3.4l-7.7-7.7c0,0,0,0,0,0
	c-0.4-0.4-0.7-0.9-0.8-1.5c-0.1-0.6-0.2-1.2-0.3-1.7c-0.1-0.6,0-1.1,0.3-1.6c0,0,0,0,0,0l3.7-7.2c1.3-2.6,0.3-5.8-2.3-7.2l-7.2-3.7
	c0,0,0,0,0,0c-0.5-0.3-0.9-0.6-1.2-1.2c-0.3-0.5-0.5-1.1-0.8-1.6c-0.3-0.5-0.3-1.1-0.2-1.7c0,0,0,0,0,0l1.3-8
	c0.5-2.9-1.5-5.6-4.4-6.1l-8-1.3c0,0,0,0,0,0c-0.6-0.1-1.1-0.3-1.5-0.7c-0.4-0.4-0.8-0.8-1.2-1.2c-0.4-0.4-0.6-0.9-0.7-1.5
	c0,0,0,0,0,0l-1.3-8c-0.5-2.9-3.2-4.9-6.1-4.4l-8,1.3c0,0,0,0,0,0c-0.6,0.1-1.1,0-1.7-0.2c-0.5-0.3-1.1-0.5-1.6-0.8
	c-0.5-0.3-0.9-0.7-1.2-1.2c0,0,0,0,0,0l-3.7-7.2c-1.3-2.6-4.5-3.7-7.2-2.3l-7.2,3.7c0,0,0,0,0,0c-0.5,0.3-1.1,0.4-1.6,0.3
	c-0.6-0.1-1.2-0.2-1.7-0.3c-0.6-0.1-1.1-0.4-1.5-0.8c0,0,0,0,0,0l-5.7-5.7c-2.1-2.1-5.4-2.1-7.5,0l-5.7,5.7c0,0,0,0,0,0
	c-0.4,0.4-0.9,0.7-1.5,0.8c-0.6,0.1-1.2,0.2-1.7,0.3c-0.6,0.1-1.1,0-1.6-0.3c0,0,0,0,0,0l-7.2-3.7c-2.6-1.3-5.8-0.3-7.2,2.3
	l-3.7,7.2c0,0,0,0,0,0c-0.3,0.5-0.6,0.9-1.2,1.2c-0.5,0.3-1.1,0.5-1.6,0.8c-0.5,0.3-1.1,0.3-1.7,0.2c0,0,0,0,0,0l-8-1.3
	c-2.9-0.5-5.6,1.5-6.1,4.4l-1.3,8c0,0,0,0,0,0c-0.1,0.6-0.3,1.1-0.7,1.5c-0.4,0.4-0.8,0.8-1.2,1.2c-0.4,0.4-0.9,0.6-1.5,0.7
	c0,0,0,0,0,0l-8,1.3c-2.9,0.5-4.9,3.2-4.4,6.1l1.3,8c0,0,0,0,0,0c0.1,0.6,0,1.1-0.2,1.7c-0.3,0.5-0.5,1.1-0.8,1.6
	c-0.3,0.5-0.7,0.9-1.2,1.2c0,0,0,0,0,0l-7.2,3.7c-2.6,1.3-3.7,4.5-2.3,7.2l3.7,7.2c0,0,0,0,0,0c0.3,0.5,0.4,1.1,0.3,1.6
	c-0.1,0.6-0.2,1.2-0.3,1.7c-0.1,0.6-0.4,1.1-0.8,1.5c0,0,0,0,0,0l-5.7,5.7c-2.1,2.1-2.1,5.4,0,7.5l5.7,5.7c0,0,0,0,0,0
	c0.4,0.4,0.7,0.9,0.8,1.5c0.1,0.6,0.2,1.2,0.3,1.7c0.1,0.6,0,1.1-0.3,1.6c0,0,0,0,0,0l-3.7,7.2c-1.3,2.6-0.3,5.8,2.3,7.2l7.2,3.7
	c0,0,0,0,0,0c0.5,0.3,0.9,0.6,1.2,1.2c0.3,0.5,0.5,1.1,0.8,1.6c0.3,0.5,0.3,1.1,0.2,1.7c0,0,0,0,0,0l-1.3,8
	c-0.5,2.9,1.5,5.6,4.4,6.1l8,1.3c0,0,0,0,0,0c0.6,0.1,1.1,0.3,1.5,0.7c0.4,0.4,0.8,0.8,1.2,1.2c0.4,0.4,0.6,0.9,0.7,1.5c0,0,0,0,0,0
	l1.3,8c0.5,2.9,3.2,4.9,6.1,4.4l8-1.3c0,0,0,0,0,0c0.6-0.1,1.1,0,1.7,0.2c0.5,0.3,1.1,0.5,1.6,0.8c0.5,0.3,0.9,0.7,1.2,1.2
	c0,0,0,0,0,0l3.7,7.2c1.3,2.6,4.5,3.7,7.2,2.3l7.2-3.7c0,0,0,0,0,0c0.5-0.3,1.1-0.4,1.6-0.3c0.6,0.1,1.2,0.2,1.7,0.3
	c0.6,0.1,1.1,0.4,1.5,0.8c0,0,0,0,0,0l5.7,5.7c2.1,2.1,5.4,2.1,7.5,0l5.7-5.7c0,0,0,0,0,0c0.4-0.4,0.9-0.7,1.5-0.8
	c0.6-0.1,1.2-0.2,1.7-0.3c0.6-0.1,1.1,0,1.6,0.3c0,0,0,0,0,0l7.2,3.7c2.6,1.3,5.8,0.3,7.2-2.3l3.7-7.2c0,0,0,0,0,0
	c0.3-0.5,0.6-0.9,1.2-1.2c0.5-0.3,1.1-0.5,1.6-0.8c0.5-0.3,1.1-0.3,1.7-0.2c0,0,0,0,0,0l8,1.3c2.9,0.5,5.6-1.5,6.1-4.4l1.3-8
	c0,0,0,0,0,0c0.1-0.6,0.3-1.1,0.7-1.5c0.4-0.4,0.8-0.8,1.2-1.2c0.4-0.4,0.9-0.6,1.5-0.7c0,0,0,0,0,0l8-1.3c2.9-0.5,4.9-3.2,4.4-6.1
	l-1.3-8c0,0,0,0,0,0c-0.1-0.6,0-1.1,0.2-1.7c0.3-0.5,0.5-1.1,0.8-1.6c0.3-0.5,0.7-0.9,1.2-1.2c0,0,0,0,0,0l7.2-3.7
	c2.6-1.3,3.7-4.5,2.3-7.2l-3.7-7.2c0,0,0,0,0,0c-0.3-0.5-0.4-1.1-0.3-1.6C158.3,98.3,158.4,97.8,158.5,97.2z M157.6,87.7l-6.9,6.9
	c0,0,0,0,0,0c-0.4,0.4-0.6,0.8-0.7,1.3c-0.1,0.5-0.2,1-0.2,1.5c-0.1,0.5,0,1,0.3,1.5c0,0,0,0,0,0l3.2,6.4c1.2,2.3,0.3,5.2-2.1,6.3
	l-6.4,3.2c0,0,0,0,0,0c-0.5,0.2-0.8,0.6-1.1,1c-0.2,0.5-0.5,0.9-0.7,1.4c-0.2,0.5-0.3,1-0.2,1.5c0,0,0,0,0,0l1.1,7.1
	c0.4,2.6-1.3,5-3.9,5.4l-7.1,1.1c0,0,0,0,0,0c-0.5,0.1-1,0.3-1.3,0.6c-0.4,0.4-0.7,0.7-1.1,1.1c-0.4,0.4-0.6,0.8-0.6,1.3
	c0,0,0,0,0,0l-1.1,7.1c-0.4,2.6-2.8,4.3-5.4,3.9l-7.1-1.1c0,0,0,0,0,0c-0.5-0.1-1,0-1.5,0.2c-0.5,0.2-0.9,0.5-1.4,0.7
	c-0.5,0.2-0.8,0.6-1,1.1c0,0,0,0,0,0l-3.2,6.4c-1.2,2.3-4,3.2-6.3,2.1l-6.4-3.2c0,0,0,0,0,0c-0.5-0.2-1-0.3-1.5-0.3
	c-0.5,0.1-1,0.2-1.5,0.2c-0.5,0.1-1,0.3-1.3,0.7c0,0,0,0,0,0l-5.1,5.1c-1.8,1.8-4.8,1.8-6.7,0l-5.1-5.1c0,0,0,0,0,0
	c-0.4-0.4-0.8-0.6-1.3-0.7c-0.5-0.1-1-0.2-1.5-0.2c-0.5-0.1-1,0-1.5,0.3c0,0,0,0,0,0l-6.4,3.2c-2.3,1.2-5.2,0.3-6.3-2.1l-3.2-6.4
	c0,0,0,0,0,0c-0.2-0.5-0.6-0.8-1-1.1c-0.5-0.2-0.9-0.5-1.4-0.7c-0.5-0.2-1-0.3-1.5-0.2c0,0,0,0,0,0l-7.1,1.1c-2.6,0.4-5-1.3-5.4-3.9
	l-1.1-7.1c0,0,0,0,0,0c-0.1-0.5-0.3-1-0.6-1.3c-0.4-0.4-0.7-0.7-1.1-1.1c-0.4-0.4-0.8-0.6-1.3-0.6c0,0,0,0,0,0l-7.1-1.1
	c-2.6-0.4-4.3-2.8-3.9-5.4l1.1-7.1c0,0,0,0,0,0c0.1-0.5,0-1-0.2-1.5c-0.2-0.5-0.5-0.9-0.7-1.4c-0.2-0.5-0.6-0.8-1.1-1c0,0,0,0,0,0
	l-6.4-3.2c-2.3-1.2-3.2-4-2.1-6.3l3.2-6.4c0,0,0,0,0,0c0.2-0.5,0.3-1,0.3-1.5c-0.1-0.5-0.2-1-0.2-1.5c-0.1-0.5-0.3-1-0.7-1.3
	c0,0,0,0,0,0l-5.1-5.1c-1.8-1.8-1.8-4.8,0-6.7l5.1-5.1c0,0,0,0,0,0c0.4-0.4,0.6-0.8,0.7-1.3c0.1-0.5,0.2-1,0.2-1.5
	c0.1-0.5,0-1-0.3-1.5c0,0,0,0,0,0l-3.2-6.4c-1.2-2.3-0.3-5.2,2.1-6.3l6.4-3.2c0,0,0,0,0,0c0.5-0.2,0.8-0.6,1.1-1
	c0.2-0.5,0.5-0.9,0.7-1.4c0.2-0.5,0.3-1,0.2-1.5c0,0,0,0,0,0l-1.1-7.1c-0.4-2.6,1.3-5,3.9-5.4l7.1-1.1c0,0,0,0,0,0
	c0.5-0.1,1-0.3,1.3-0.6c0.4-0.4,0.7-0.7,1.1-1.1c0.4-0.4,0.6-0.8,0.6-1.3c0,0,0,0,0,0l1.1-7.1c0.4-2.6,2.8-4.3,5.4-3.9l7.1,1.1
	c0,0,0,0,0,0c0.5,0.1,1,0,1.5-0.2c0.5-0.2,0.9-0.5,1.4-0.7c0.5-0.2,0.8-0.6,1-1.1c0,0,0,0,0,0l3.2-6.4c1.2-2.3,4-3.2,6.3-2.1
	l6.4,3.2c0,0,0,0,0,0c0.5,0.2,1,0.3,1.5,0.3c0.5-0.1,1-0.2,1.5-0.2c0.5-0.1,1-0.3,1.3-0.7c0,0,0,0,0,0l5.1-5.1
	c1.8-1.8,4.8-1.8,6.7,0l5.1,5.1c0,0,0,0,0,0c0.4,0.4,0.8,0.6,1.3,0.7c0.5,0.1,1,0.2,1.5,0.2c0.5,0.1,1,0,1.5-0.3c0,0,0,0,0,0
	l6.4-3.2c2.3-1.2,5.2-0.3,6.3,2.1l3.2,6.4c0,0,0,0,0,0c0.2,0.5,0.6,0.8,1,1.1c0.5,0.2,0.9,0.5,1.4,0.7c0.5,0.2,1,0.3,1.5,0.2
	c0,0,0,0,0,0l7.1-1.1c2.6-0.4,5,1.3,5.4,3.9l1.1,7.1c0,0,0,0,0,0c0.1,0.5,0.3,1,0.6,1.3c0.4,0.4,0.7,0.7,1.1,1.1
	c0.4,0.4,0.8,0.6,1.3,0.6c0,0,0,0,0,0l7.1,1.1c2.6,0.4,4.3,2.8,3.9,5.4l-1.1,7.1c0,0,0,0,0,0c-0.1,0.5,0,1,0.2,1.5
	c0.2,0.5,0.5,0.9,0.7,1.4c0.2,0.5,0.6,0.8,1.1,1c0,0,0,0,0,0l6.4,3.2c2.3,1.2,3.2,4,2.1,6.3l-3.2,6.4c0,0,0,0,0,0
	c-0.2,0.5-0.3,1-0.3,1.5c0.1,0.5,0.2,1,0.2,1.5c0.1,0.5,0.3,1,0.7,1.3c0,0,0,0,0,0l6.9,6.9C158.4,85.5,158.4,86.9,157.6,87.7z"/>
</svg>
